<svg width="99" height="54" viewBox="0 0 99 54" fill="none" xmlns="http://www.w3.org/2000/svg">
<path d="M53.5062 41.4873L53.481 40.7377L52.898 40.7574L52.7735 41.3271L53.5062 41.4873ZM47.8985 41.5438L48.6028 41.2859L48.4251 40.8007L47.9085 40.7938L47.8985 41.5438ZM51.4022 51.1122L50.698 51.3701L51.5844 53.7909L52.1349 51.2724L51.4022 51.1122ZM97.25 21.5839C97.25 23.9518 96.1464 26.275 94.013 28.4721C91.8762 30.6726 88.7412 32.7066 84.7902 34.4635C76.8908 37.9763 65.8677 40.3207 53.481 40.7377L53.5314 42.2369C66.0564 41.8152 77.2801 39.4448 85.3997 35.8341C89.4583 34.0293 92.7758 31.8993 95.0891 29.517C97.4058 27.1313 98.75 24.4529 98.75 21.5839H97.25ZM49.5 2.36328C62.8196 2.36328 74.8432 4.58774 83.5091 8.15604C87.8438 9.94092 91.3023 12.0473 93.6655 14.3478C96.0262 16.6461 97.25 19.091 97.25 21.5839H98.75C98.75 18.562 97.2595 15.7533 94.7118 13.273C92.1665 10.7951 88.5223 8.59811 84.0802 6.76902C75.1926 3.10939 62.9662 0.863281 49.5 0.863281V2.36328ZM1.75 21.5839C1.75 19.091 2.97378 16.6461 5.33454 14.3478C7.69767 12.0473 11.1562 9.94092 15.4909 8.15604C24.1568 4.58774 36.1804 2.36328 49.5 2.36328V0.863281C36.0338 0.863281 23.8074 3.10939 14.9198 6.76902C10.4777 8.59811 6.83354 10.7951 4.2882 13.273C1.7405 15.7533 0.25 18.562 0.25 21.5839H1.75ZM47.9085 40.7938C34.9579 40.6208 23.3341 38.3447 14.9757 34.7963C10.7948 33.0214 7.46644 30.9432 5.19444 28.682C2.92526 26.4237 1.75 24.0271 1.75 21.5839H0.25C0.25 24.5451 1.68149 27.3021 4.13633 29.7452C6.58835 32.1855 10.1012 34.3565 14.3895 36.177C22.9691 39.8193 34.7947 42.1188 47.8885 42.2937L47.9085 40.7938ZM52.1065 50.8543L48.6028 41.2859L47.1943 41.8017L50.698 51.3701L52.1065 50.8543ZM52.7735 41.3271L50.6695 50.952L52.1349 51.2724L54.2389 41.6475L52.7735 41.3271Z" fill="black"/>
</svg>
