<svg width="205" height="127" viewBox="0 0 205 127" fill="none" xmlns="http://www.w3.org/2000/svg">
<path d="M96.9397 31.848C97.5391 31.172 97.255 30.1174 97.2891 29.2797C97.4754 24.7043 98.5598 20.4971 97.3279 15.8546C95.4231 8.67631 91.9715 3.59124 84.3629 2.31266C79.8705 1.55771 74.0295 2.16105 69.9229 4.21942C62.9795 7.69974 62.9698 16.6192 65.3037 23.1703C66.7934 27.3519 70.0127 30.6903 71.0875 35" stroke="#EF22EF" stroke-width="3" stroke-linecap="round"/>
<path d="M104.312 28.9787C100.134 29.723 96.0487 32.8284 92.7976 35.374C88.3858 38.8285 83.8469 43.1888 85.1282 49.3725C86.7359 57.1316 93.6348 58.8599 100.467 59.5495C104.129 59.9192 109.463 61.2009 110.667 56.6588C110.744 56.367 111.866 52.0047 112.079 52.382C113.539 54.9605 118.36 54.011 120.71 53.5304C126.09 52.4299 132.576 48.9622 133.597 43.0365C134.122 39.99 134.254 35.5786 131.753 33.3347C131.679 33.2683 133.005 29.9325 133.067 29.6519C134.196 24.5236 134.332 19.0309 130.556 14.9209C126.455 10.4564 121.826 8.7406 116.022 10.9807C113.673 11.8872 112.104 14.3551 110.196 15.9109C108.334 17.4291 106.838 18.7421 105.547 20.7816C104.113 23.0475 102.142 25.2662 101.409 27.8699C100.692 30.4135 99.8013 32.7735 99.3687 35.3938" stroke="#EF22EF" stroke-width="3" stroke-linecap="round"/>
<path d="M134.791 26.7164C138.691 22.3268 144.46 -1.66221 153.414 8.47573C156.008 11.4133 155.59 17.3749 154.555 20.7281C153.279 24.8677 152.603 29.1968 151.465 33.3744C151.313 33.9316 150.837 34.4796 151.347 34.9503C154.234 37.6167 156.978 40.5496 159.792 43.3023C169.202 52.5076 171.07 63.8305 169.319 76.4349C167.612 88.7288 164.768 101.672 155.697 110.749C148.193 118.259 136.596 119.647 126.543 121.347C120.398 122.386 114.201 123.262 108.039 124.203C104.283 124.777 101.224 125.483 97.6057 124.538C86.9474 121.756 75.3189 119.2 65.7351 113.586C61.5354 111.126 58.5815 107.896 55.735 103.993C52.8022 99.9712 49.4619 96.2282 46.9159 91.9375C43.9795 86.9887 43.199 82.0547 42.5064 76.3561C41.6701 69.4751 41.1779 62.1758 44.7899 55.8699C46.8996 52.1867 51.3085 46.9826 56.0499 46.9268C59.7121 46.8837 63.3205 47.636 66.9359 47.636C70.1976 47.636 69.9478 42.5094 69.9478 40.5446" stroke="#EF22EF" stroke-width="3" stroke-linecap="round"/>
<path d="M69.908 82C69.908 83.3394 69.908 84.647 69.908 86" stroke="#EF22EF" stroke-width="3" stroke-linecap="round"/>
<path d="M80.908 81V85" stroke="#EF22EF" stroke-width="3" stroke-linecap="round"/>
<path d="M57.908 62C66.8402 62 75.7913 63.7152 84.3365 66.2031C91.684 68.3423 96.9235 72.4499 101.559 78.4198C105.743 83.8083 106.813 90.4943 107.908 97" stroke="#EF22EF" stroke-width="3" stroke-linecap="round"/>
<path d="M151.908 32.4764C159.142 31.296 168.671 32.2619 175.068 35.9027C180.282 38.87 183.188 45.6389 183.12 51.5996C183.088 54.3914 181.599 57.8215 179.811 60.0059C179.372 60.5426 182.377 60.8447 182.462 60.8624C188.613 62.1397 194.948 63.5566 200.818 65.8225C202.279 66.3863 203.395 66.5681 202.692 67.9738C201.141 71.0737 198.522 73.6191 196.194 76.141C193.874 78.6553 191.657 82.1325 188.78 84.0493C186.759 85.3963 183.875 86.1282 181.565 86.8978C175.961 88.765 169.269 87.6946 163.388 87.6946" stroke="#EF22EF" stroke-width="3" stroke-linecap="round"/>
<path d="M128.563 90C129.054 94.5439 130.866 98.9631 131.264 103.63C131.43 105.569 132.734 110.646 131.076 112.351C128.671 114.823 126.29 115 122.908 115" stroke="#EF22EF" stroke-width="3" stroke-linecap="round"/>
<path d="M61.908 111.654C53.0783 111.654 43.2832 108.808 34.9606 106.302C29.336 104.608 26.7246 101.268 25.1268 95.5658C24.3057 92.6354 24.5521 89.58 24.5521 86.5601C24.5521 84.777 30.5994 83.9833 32.0233 82.554C33.7211 80.8497 33.368 76.3609 32.8215 74.3495C32.0341 71.4517 31.1084 68.1025 29.7244 65.4399C28.8112 63.6828 23.6189 63.3579 21.934 62.8119C16.0832 60.9159 12.8421 59.4392 8.17297 64.1259C6.58625 65.7186 5.05573 67.487 3.86268 69.3499C0.38402 74.7816 1.79209 81.5397 6.1615 85.6948C7.16272 86.6469 8.45051 85.8304 9.32239 86.8806C11.882 89.9637 10.8153 96.0806 13.1857 99.4117C14.1268 100.734 14.6134 102.676 15.9315 103.866C17.8275 105.579 21.2123 107.812 22.381 109.924C23.104 111.23 24.8413 111.849 25.6696 113.097C27.6997 116.153 32.6825 115.777 34.8968 118" stroke="#EF22EF" stroke-width="3" stroke-linecap="round"/>
<path d="M74.0931 45.589C74.1506 46.6803 74.7247 47.7813 75.1555 48.7635C75.8917 50.4419 76.5819 54.1918 78.5577 54.9103C79.9239 55.4071 81.626 55.283 83.0477 55.3276C83.9593 55.3563 86.1084 55.713 86.9178 55.0115C88.1836 53.9145 86.5431 51.329 85.8934 50.4583C84.1779 48.1596 82.2199 46.0018 80.4169 43.7677C79.3651 42.4644 78.6374 42.0546 77.0274 41.3646C75.7296 40.8085 74.5336 39.7512 74.0425 41.3646C73.3513 43.6357 72.4995 45.4423 72.4995 47.8655" stroke="#EF22EF" stroke-width="3" stroke-linecap="round"/>
<path d="M134.65 52.1908C132.802 51.2945 131.754 52.2313 129.945 53.1014C126.438 54.7884 122.047 56.3154 119.169 59.0205C117.922 60.1927 115.635 62.2052 116.463 64.1302C117.176 65.7899 118.866 66.039 120.459 66.4068C123.784 67.1739 127.024 66.6017 130.223 65.4708C132.874 64.5338 136.297 63.203 137.015 60.1715C137.351 58.7518 137.382 57.1879 137.382 55.7321C137.382 55.4205 137.812 53.936 137.471 53.7844C136.592 53.3941 135.575 53.1049 134.65 52.8738" stroke="#EF22EF" stroke-width="3" stroke-linecap="round"/>
</svg>
