<svg width="337" height="127" viewBox="0 0 337 127" fill="none" xmlns="http://www.w3.org/2000/svg">
<path d="M157.032 31.848C157.631 31.172 157.347 30.1174 157.381 29.2797C157.567 24.7043 158.652 20.4971 157.42 15.8546C155.515 8.67631 152.064 3.59124 144.455 2.31266C139.963 1.55771 134.122 2.16105 130.015 4.21942C123.072 7.69974 123.062 16.6192 125.396 23.1703C126.885 27.3519 130.105 30.6903 131.18 35" stroke="#EF22EF" stroke-width="3" stroke-linecap="round"/>
<path d="M164.404 28.9787C160.226 29.723 156.141 32.8284 152.89 35.374C148.478 38.8285 143.939 43.1888 145.22 49.3725C146.828 57.1316 153.727 58.8599 160.559 59.5495C164.221 59.9192 169.555 61.2009 170.759 56.6588C170.836 56.367 171.958 52.0047 172.171 52.382C173.631 54.9605 178.452 54.011 180.802 53.5304C186.182 52.4299 192.668 48.9622 193.689 43.0365C194.214 39.99 194.346 35.5786 191.845 33.3347C191.771 33.2683 193.097 29.9325 193.159 29.6519C194.288 24.5236 194.424 19.0309 190.649 14.9209C186.547 10.4564 181.918 8.7406 176.114 10.9807C173.765 11.8872 172.196 14.3551 170.288 15.9109C168.426 17.4291 166.93 18.7421 165.639 20.7816C164.205 23.0475 162.234 25.2662 161.501 27.8699C160.784 30.4135 159.893 32.7735 159.461 35.3938" stroke="#EF22EF" stroke-width="3" stroke-linecap="round"/>
<path d="M194.883 26.7164C198.783 22.3268 204.553 -1.66221 213.506 8.47573C216.1 11.4133 215.682 17.3749 214.647 20.7281C213.371 24.8677 212.695 29.1968 211.557 33.3744C211.405 33.9316 210.929 34.4796 211.439 34.9503C214.326 37.6167 217.07 40.5496 219.884 43.3023C229.294 52.5076 231.162 63.8305 229.412 76.4349C227.704 88.7288 224.86 101.672 215.789 110.749C208.285 118.259 196.688 119.647 186.635 121.347C180.49 122.386 174.293 123.262 168.131 124.203C164.375 124.777 161.316 125.483 157.698 124.538C147.039 121.756 135.411 119.2 125.827 113.586C121.627 111.126 118.674 107.896 115.827 103.993C112.894 99.9712 109.554 96.2282 107.008 91.9375C104.072 86.9887 103.291 82.0547 102.598 76.3561C101.762 69.4751 101.27 62.1758 104.882 55.8699C106.992 52.1867 111.401 46.9826 116.142 46.9268C119.804 46.8837 123.413 47.636 127.028 47.636C130.29 47.636 130.04 42.5094 130.04 40.5446" stroke="#EF22EF" stroke-width="3" stroke-linecap="round"/>
<path d="M130 82C130 83.3394 130 84.647 130 86" stroke="#EF22EF" stroke-width="3" stroke-linecap="round"/>
<path d="M141 81V85" stroke="#EF22EF" stroke-width="3" stroke-linecap="round"/>
<path d="M118 62C126.932 62 135.883 63.7152 144.429 66.2031C151.776 68.3423 157.016 72.4499 161.651 78.4198C165.835 83.8083 166.905 90.4943 168 97" stroke="#EF22EF" stroke-width="3" stroke-linecap="round"/>
<path d="M212 32.4764C219.234 31.296 228.763 32.2619 235.16 35.9027C240.374 38.87 243.28 45.6389 243.212 51.5996C243.18 54.3914 241.691 57.8215 239.903 60.0059C239.464 60.5426 242.469 60.8447 242.554 60.8624C248.705 62.1397 255.04 63.5566 260.91 65.8225C262.371 66.3863 263.487 66.5681 262.784 67.9738C261.233 71.0737 258.615 73.6191 256.287 76.141C253.966 78.6553 251.749 82.1325 248.872 84.0493C246.851 85.3963 243.967 86.1282 241.657 86.8978C236.053 88.765 229.361 87.6946 223.48 87.6946" stroke="#EF22EF" stroke-width="3" stroke-linecap="round"/>
<path d="M188.655 90C189.146 94.5439 190.958 98.9631 191.356 103.63C191.522 105.569 192.826 110.646 191.168 112.351C188.763 114.823 186.382 115 183 115" stroke="#EF22EF" stroke-width="3" stroke-linecap="round"/>
<path d="M122 111.654C113.17 111.654 103.375 108.808 95.0527 106.302C89.428 104.608 86.8166 101.268 85.2188 95.5658C84.3978 92.6354 84.6441 89.58 84.6441 86.5601C84.6441 84.777 90.6914 83.9833 92.1153 82.554C93.8131 80.8497 93.46 76.3609 92.9135 74.3495C92.1262 71.4517 91.2004 68.1025 89.8165 65.4399C88.9032 63.6828 83.711 63.3579 82.026 62.8119C76.1753 60.9159 72.9341 59.4392 68.265 64.1259C66.6783 65.7186 65.1478 67.487 63.9547 69.3499C60.4761 74.7816 61.8841 81.5397 66.2535 85.6948C67.2548 86.6469 68.5426 85.8304 69.4144 86.8806C71.974 89.9637 70.9074 96.0806 73.2777 99.4117C74.2188 100.734 74.7054 102.676 76.0235 103.866C77.9196 105.579 81.3043 107.812 82.473 109.924C83.1961 111.23 84.9333 111.849 85.7616 113.097C87.7918 116.153 92.7746 115.777 94.9888 118" stroke="#EF22EF" stroke-width="3" stroke-linecap="round"/>
<path d="M134.185 45.589C134.243 46.6803 134.817 47.7813 135.248 48.7635C135.984 50.4419 136.674 54.1918 138.65 54.9103C140.016 55.4071 141.718 55.283 143.14 55.3276C144.051 55.3563 146.2 55.713 147.01 55.0115C148.276 53.9145 146.635 51.329 145.985 50.4583C144.27 48.1596 142.312 46.0018 140.509 43.7677C139.457 42.4644 138.729 42.0546 137.119 41.3646C135.822 40.8085 134.626 39.7512 134.135 41.3646C133.443 43.6357 132.592 45.4423 132.592 47.8655" stroke="#EF22EF" stroke-width="3" stroke-linecap="round"/>
<path d="M194.742 52.1908C192.894 51.2945 191.846 52.2313 190.037 53.1014C186.53 54.7884 182.139 56.3154 179.261 59.0205C178.014 60.1927 175.727 62.2052 176.555 64.1302C177.269 65.7899 178.958 66.039 180.551 66.4068C183.876 67.1739 187.116 66.6017 190.315 65.4708C192.966 64.5338 196.389 63.203 197.107 60.1715C197.444 58.7518 197.474 57.1879 197.474 55.7321C197.474 55.4205 197.904 53.936 197.563 53.7844C196.684 53.3941 195.667 53.1049 194.742 52.8738" stroke="#EF22EF" stroke-width="3" stroke-linecap="round"/>
<path d="M312.662 10.1761C312.662 19.6656 305.835 31.4434 299.83 37.8789C296.782 41.1453 291.804 43.4774 288.067 45.7193C283.858 48.2444 286.848 47.671 290.206 48.8555C298.204 51.677 301.873 54.2073 301.969 63.4909C302.1 76.2067 300.07 88.41 298.76 100.994C298.068 107.649 297.749 114.358 296.859 120.987C296.57 123.144 296.635 121.269 296.859 120.726C299.905 113.356 303.702 105.81 307.494 98.9035C313.982 87.085 321.849 78.9579 331.376 70.8086C331.983 70.2899 335 70.3229 335 69.5672C335 67.4427 325.318 57.4554 324.069 55.7158C314.289 42.0921 309.454 25.9992 309.454 9" stroke="#FF00FF" stroke-width="3" stroke-linecap="round"/>
<path d="M21.3781 13.4627C21.3781 24.0482 23.267 34.4521 21.9415 45.1294C20.1489 59.5699 12.7917 67.9745 3.74164 78.3174C-3.7788 86.9122 16.7364 72.2126 18.7861 77.1905C20.4314 81.1862 19.4123 87.616 19.2933 91.7842C19.1397 97.1593 15.653 112.423 18.5608 107.899C33.5782 84.5388 42.4401 58.326 62.3983 38.3678C64.2412 36.5249 65.5347 35.6332 62.2856 36.283C56.0007 37.54 48.6579 34.3441 43.0151 31.9443C36.6397 29.2329 27.0215 25.4804 24.4208 18.4212C23.2475 15.2366 22.6852 11.7271 20.3638 9.40576" stroke="#FF00FF" stroke-width="3" stroke-linecap="round"/>
</svg>
