<svg width="52" height="82" viewBox="0 0 52 82" fill="none" xmlns="http://www.w3.org/2000/svg">
<path d="M5.79017 2.12354C11.0902 11.7599 16.3113 22.484 12.8832 33.728C10.7791 40.6294 6.9673 44.3514 3.36597 50.2036C2.53244 51.5581 0.940794 52.7886 3.14151 53.4358C7.88852 54.832 13.1514 54.6696 18.001 55.5009C25.3934 56.7682 22.5017 68.9864 22.9392 74.4007C23.2174 77.8432 23.407 83.2068 25.8123 77.2738C29.0121 69.3811 32.694 61.778 37.3946 54.6479C41.1822 48.9027 45.1411 43.1149 49.2463 37.5887C50.9696 35.2688 48.0397 36.0446 45.9242 35.5686C39.4958 34.1222 32.9902 31.7494 27.4733 28.0715C23.5443 25.4521 20.2968 21.06 16.5195 18.0604C13.8524 15.9424 12.2547 13.6892 12.2547 10.2042" stroke="#FF00FF" stroke-width="3" stroke-linecap="round"/>
</svg>
