<svg width="249" height="53" viewBox="0 0 249 53" fill="none" xmlns="http://www.w3.org/2000/svg">
<path fill-rule="evenodd" clip-rule="evenodd" d="M124.5 52.5526C55.7406 52.5526 0 40.7883 0 26.2763C0 11.7643 55.7406 0 124.5 0C193.259 0 249 11.7643 249 26.2763C249 32.8366 237.609 38.8353 218.774 43.4396L225.781 53L201.426 46.9381C180.25 50.4548 153.536 52.5526 124.5 52.5526Z" fill="#EF22EF"/>
<path d="M112 24.8368C117.62 24.8368 123.241 24.8368 128.861 24.8368C130.882 24.8368 132.902 24.8368 134.923 24.8368C136.43 24.8368 136.884 24.8539 135.84 23.4614" stroke="white" stroke-width="4" stroke-linecap="round"/>
<path d="M124.378 12C124.378 17.9599 124.378 23.9199 124.378 29.8798C124.378 32.9715 125.295 36.008 125.295 39.049" stroke="white" stroke-width="4" stroke-linecap="round"/>
</svg>
