<svg width="249" height="54" viewBox="0 0 249 54" fill="none" xmlns="http://www.w3.org/2000/svg">
<mask id="path-1-inside-1_604_5318" fill="white">
<path fill-rule="evenodd" clip-rule="evenodd" d="M124.5 53.0526C55.7406 53.0526 0 41.2883 0 26.7763C0 12.2643 55.7406 0.5 124.5 0.5C193.259 0.5 249 12.2643 249 26.7763C249 33.3366 237.609 39.3353 218.774 43.9396L225.781 53.5L201.426 47.4381C180.25 50.9548 153.536 53.0526 124.5 53.0526Z"/>
</mask>
<path d="M218.774 43.9396L217.564 44.8263L216.237 43.0156L218.418 42.4825L218.774 43.9396ZM225.781 53.5L226.99 52.6133L229.441 55.9569L225.418 54.9556L225.781 53.5ZM201.426 47.4381L201.18 45.9583L201.487 45.9074L201.788 45.9825L201.426 47.4381ZM1.5 26.7763C1.5 28.0743 2.1164 29.491 3.60632 31.0277C5.10177 32.5701 7.38365 34.1302 10.4536 35.662C16.5881 38.7231 25.5622 41.5223 36.775 43.8888C59.1758 48.6166 90.1921 51.5526 124.5 51.5526V54.5526C90.0484 54.5526 58.8147 51.6065 36.1554 46.8241C24.8381 44.4355 15.5797 41.5726 9.11409 38.3464C5.88396 36.7346 3.27393 34.9947 1.45247 33.116C-0.374508 31.2317 -1.5 29.1063 -1.5 26.7763H1.5ZM124.5 2C90.1921 2 59.1758 4.93601 36.775 9.66382C25.5622 12.0303 16.5881 14.8295 10.4536 17.8906C7.38365 19.4224 5.10177 20.9825 3.60632 22.5248C2.1164 24.0616 1.5 25.4783 1.5 26.7763H-1.5C-1.5 24.4463 -0.374508 22.3209 1.45247 20.4366C3.27393 18.5579 5.88396 16.818 9.11409 15.2062C15.5797 11.9799 24.8381 9.11705 36.1554 6.72848C58.8147 1.94614 90.0484 -1 124.5 -1V2ZM247.5 26.7763C247.5 25.4783 246.884 24.0616 245.394 22.5248C243.898 20.9825 241.616 19.4224 238.546 17.8906C232.412 14.8295 223.438 12.0303 212.225 9.66382C189.824 4.93601 158.808 2 124.5 2V-1C158.952 -1 190.185 1.94614 212.845 6.72848C224.162 9.11705 233.42 11.9799 239.886 15.2062C243.116 16.818 245.726 18.5579 247.548 20.4366C249.375 22.3209 250.5 24.4463 250.5 26.7763H247.5ZM218.418 42.4825C227.781 40.1937 235.189 37.5813 240.221 34.7808C242.737 33.3802 244.589 31.9707 245.797 30.5905C246.996 29.2199 247.5 27.9519 247.5 26.7763H250.5C250.5 28.8808 249.58 30.8228 248.055 32.5659C246.538 34.2994 244.365 35.9074 241.68 37.4021C236.307 40.3921 228.602 43.0813 219.13 45.3967L218.418 42.4825ZM224.571 54.3867L217.564 44.8263L219.984 43.0529L226.99 52.6133L224.571 54.3867ZM201.788 45.9825L226.143 52.0444L225.418 54.9556L201.064 48.8936L201.788 45.9825ZM124.5 51.5526C153.47 51.5526 180.101 49.459 201.18 45.9583L201.672 48.9178C180.4 52.4505 153.601 54.5526 124.5 54.5526V51.5526Z" fill="black" mask="url(#path-1-inside-1_604_5318)"/>
</svg>
