<svg width="32" height="33" viewBox="0 0 32 33" fill="none" xmlns="http://www.w3.org/2000/svg">
<path d="M3.9838 19.6972C3.7495 19.5931 3.72346 19.5869 4.02699 19.543C7.35461 19.0614 10.6983 18.672 14.0512 18.4141C15.4234 18.3086 16.8872 18.2738 18.2583 18.4234C19.5357 18.5627 20.8464 18.7095 22.1138 18.4203C23.8498 18.0242 25.604 18.0872 27.3695 18.0872C27.4895 18.0872 28.0697 18.2029 28.0789 17.9638C28.0939 17.5749 28.0283 17.0291 27.7705 16.7301C27.5003 16.4167 27.1413 16.3612 26.7341 16.4031C25.2952 16.5512 23.8312 16.888 22.4222 17.2112C20.7012 17.606 19.0834 18.2798 17.3422 18.6177C14.2104 19.2255 11.0178 19.4303 7.85778 19.8391C6.62588 19.9985 5.41441 20.2881 4.32309 20.9063C4.17186 20.992 3.75512 21.1341 3.95605 21.335C4.04716 21.4261 4.15239 21.4539 4.2799 21.4738C5.09732 21.6013 5.96421 21.5115 6.78442 21.4738C8.85016 21.379 10.9126 21.3138 12.9809 21.2857C15.0333 21.2578 17.0936 21.2984 19.1435 21.1685C20.2907 21.0958 21.4384 21.0616 22.5795 20.9156C23.6745 20.7754 24.725 20.641 25.8273 20.641C26.2324 20.641 26.6375 20.641 27.0426 20.641C27.1219 20.641 27.7073 20.5895 27.3541 20.6719C26.5732 20.8541 25.7705 20.9474 24.9761 21.0482C23.4202 21.2455 21.8723 21.4793 20.3186 21.6897C18.3844 21.9518 16.452 22.2144 14.5293 22.5534C13.0554 22.8132 11.6121 23.1723 10.1526 23.4972C8.75898 23.8074 7.3627 24.1019 5.97014 24.4163C4.799 24.6808 3.55684 24.5732 2.36759 24.5829C2.17413 24.5844 2.04065 24.5738 2.04065 24.7772C2.04065 24.9707 5.89083 24.8605 6.07809 24.8605C7.56222 24.8605 9.065 24.9272 10.5474 24.8358C10.8958 24.8143 11.3448 24.7719 11.5899 24.4842C11.6412 24.4239 11.692 24.4113 11.7657 24.3855C11.8802 24.3454 11.9983 24.3209 12.1204 24.3176C12.9014 24.2965 13.6996 24.378 14.4768 24.4194C16.8994 24.5484 19.4096 24.7709 21.83 24.4842C23.8619 24.2434 25.9243 24.3984 27.9617 24.2528C28.0893 24.2437 28.7739 24.2181 28.665 24.3053C28.2458 24.6406 27.5583 24.8364 27.0858 25.0455C25.839 25.5974 24.5715 26.1592 23.2365 26.4643C20.2618 27.1443 17.0753 26.9147 14.0481 26.9147C13.021 26.9147 11.9939 26.9147 10.9668 26.9147C10.4389 26.9147 9.90564 26.8923 9.38763 27.0134C9.08188 27.0848 9.04982 27.2216 9.03601 27.5254C9.02287 27.8144 8.66117 27.823 8.40371 27.8492C7.31385 27.9601 6.20419 27.7454 5.11269 27.806C5.03314 27.8105 4.94078 27.9333 4.88444 27.877C4.7902 27.7827 4.8721 27.2408 4.8721 27.1367C4.8721 26.1622 4.92634 25.1709 4.83509 24.2004C4.76519 23.4569 4.69826 22.7021 4.23055 22.0969C4.12101 21.9551 4.02844 21.762 3.89744 22.0043C3.5171 22.708 3.23996 23.4679 3.22196 24.2775C3.17515 26.3844 5.0442 27.6399 6.67646 28.5247C7.70227 29.0807 8.64932 29.428 9.82252 29.4099C11.258 29.3878 12.6892 29.3119 14.1252 29.302C16.3367 29.2866 18.5646 28.9251 20.7073 28.4137C22.21 28.0549 23.8773 27.8684 25.4233 28.0004C26.1294 28.0606 26.7722 28.1598 27.425 27.8585C27.8416 27.6662 28.272 27.4113 28.2331 26.8869C28.1741 26.0902 27.8993 25.3283 27.8569 24.5212C27.8138 23.7023 27.8717 22.627 27.3202 21.9612C26.658 21.1617 25.3202 20.8821 24.353 20.8323C23.4061 20.7835 22.2863 20.8306 21.392 21.1839C21.0741 21.3095 20.7873 21.5595 20.4975 21.7391C20.416 21.7896 20.2001 21.8615 20.1953 21.9858C20.1842 22.2737 20.1842 22.5061 20.479 22.6305C21.7873 23.1824 23.54 23.1977 24.7972 22.4793C25.1045 22.3037 25.3632 22.0611 25.5929 21.7946C25.6421 21.7376 25.7597 21.6394 25.6392 21.7082C24.7132 22.2374 23.6236 22.2908 22.6998 22.7939C22.4449 22.9327 22.0875 23.2156 22.0274 23.528C22.0048 23.6456 22.4458 23.5196 22.4654 23.5157C23.2397 23.3608 23.9977 23.1066 24.7478 22.8649C24.851 22.8316 26.2371 22.514 26.1759 22.1771C26.1357 21.956 23.7926 22.4991 23.6374 22.5287" stroke="#FFFF00" stroke-width="3" stroke-linecap="round"/>
<path d="M12.8918 14.9113C13.0347 14.8935 12.5556 11.8226 12.5468 11.5819C12.4702 9.50727 12.1314 6.33322 13.5214 4.5262C14.7832 2.8859 16.2048 1.6414 18.3604 2.09381C20.633 2.57078 22.0991 3.26553 22.216 5.83728C22.2913 7.49461 22.5179 9.13569 22.5179 10.797C22.5179 11.6128 22.5127 12.4015 22.6731 13.2035" stroke="black" stroke-width="3" stroke-linecap="round"/>
<path d="M26.5547 13.9798C25.6911 14.3684 24.736 14.5204 23.8117 14.6871C21.1191 15.1727 18.5164 16.3255 15.79 16.533C14.3536 16.6423 12.9149 16.5878 11.4773 16.6537C10.1719 16.7136 8.90252 16.9825 7.60441 17.0764C5.86329 17.2022 3.98843 17.0231 2.27384 17.4042C1.98338 17.4687 2.0252 19.5909 2.0237 19.7934C2.00811 21.8974 1.90461 24.033 2.29971 26.1073C2.56063 27.4771 2.67647 28.8735 2.92075 30.2475C3.02643 30.842 2.86838 30.9463 3.59354 30.8686C8.91653 30.2983 14.1867 30.282 19.5421 30.282C21.8175 30.282 23.9572 29.9829 26.2096 29.7386C27.1008 29.642 29.5046 30.0663 29.5046 28.8157C29.5046 25.4799 29.1795 22.0857 28.9181 18.7584C28.7465 16.5752 28.4814 14.3895 27.952 12.272" stroke="black" stroke-width="3" stroke-linecap="round"/>
</svg>