<svg width="77" height="62" viewBox="0 0 77 62" fill="none" xmlns="http://www.w3.org/2000/svg">
<path d="M20.7336 15.4614C16.1474 15.8096 12.4583 18.0023 8.58647 20.0442C6.93879 20.9132 5.35375 22.0323 4.10164 23.3457C2.9229 24.5821 2.54618 25.7572 2.33915 27.3707C1.81123 31.485 1.85755 35.4877 2.7777 39.5589C3.39958 42.3104 4.80946 44.6963 6.12064 47.2095C7.00873 48.9117 8.53147 49.9046 9.8773 51.2646C12.5753 53.9911 15.8599 55.8023 19.6331 57.0911C23.3597 58.3642 27.6715 58.4159 31.5567 59.1489C37.6258 60.2938 43.7274 60.0427 49.8684 59.767C53.9918 59.5818 58.5271 59.4164 61.6928 56.7218C63.5168 55.1692 65.5411 53.7509 67.543 52.3953C69.4209 51.1236 71.6066 49.9001 72.9959 48.1441C75.0309 45.5721 75.1809 41.8983 74.8825 38.8579C74.5417 35.3844 73.8673 32.1143 72.7973 28.7727C72.4131 27.5728 71.9862 26.3776 71.2334 25.3205C70.7418 24.6301 69.9938 24.2159 69.3468 23.6622C68.3935 22.8465 67.2601 22.2152 66.2604 21.4462C65.4538 20.8258 64.6967 20.1901 63.8277 19.6372C62.1612 18.577 60.3969 17.3609 58.2671 17.3609" stroke="#252729" stroke-width="3" stroke-linecap="round"/>
<path d="M21.5428 14.7831C21.5428 13.5804 21.4642 12.3355 21.6172 11.1448C21.8314 9.47777 21.9297 7.35122 22.644 5.86689C22.9996 5.12789 23.3116 4.18752 23.7006 3.49967C23.9943 2.98026 24.3042 1.75217 24.9729 2.04433C26.1065 2.53964 27.2668 3.88558 27.8971 5.11159C28.7091 6.69133 29.7563 7.98646 30.5162 9.60654C31.0972 10.8453 31.8168 11.8793 32.5326 12.987C32.7245 13.2839 32.8688 13.9378 33.2245 13.9541C33.9245 13.9862 34.6301 13.9541 35.3302 13.9541C39.0028 13.9541 42.6215 14.4515 46.2977 14.4515C46.8709 14.4515 47.0288 11.8069 47.1236 11.2645C47.4349 9.48443 48.7289 7.96793 49.832 6.86167C50.3681 6.32405 50.801 5.57668 51.4094 5.16685C51.7477 4.93901 52.1559 4.84762 52.4734 4.57735C53.3824 3.80373 53.9477 4.59618 54.4973 5.67346C56.3778 9.35938 57.457 13.1089 58.5 17.2914" stroke="#252729" stroke-width="3" stroke-linecap="round"/>
</svg>
