<svg className="test" width="77" height="62" viewBox="0 0 77 62" fill="none" xmlns="http://www.w3.org/2000/svg">
<path d="M20.7336 24C16.1474 24.2812 12.4583 26.0525 8.58647 27.702C6.93879 28.4039 5.35375 29.3079 4.10164 30.3689C2.9229 31.3677 2.54618 32.317 2.33915 33.6203C1.81123 36.9438 1.85755 40.1772 2.7777 43.4659C3.39958 45.6886 4.80946 47.6159 6.12064 49.646C7.00873 51.0211 8.53147 51.8232 9.8773 52.9218C12.5753 55.1243 15.8599 56.5873 19.6331 57.6285C23.3597 58.6568 27.6715 58.6986 31.5567 59.2907C37.6258 60.2156 43.7274 60.0128 49.8684 59.79C53.9918 59.6404 58.5271 59.5068 61.6928 57.3301C63.5168 56.0759 65.5411 54.9302 67.543 53.8351C69.4209 52.8079 71.6066 51.8195 72.9959 50.4011C75.0309 48.3234 75.1809 45.3557 74.8825 42.8997C74.5417 40.0938 73.8673 37.4522 72.7973 34.7528C72.4131 33.7835 71.9862 32.8181 71.2334 31.9642C70.7418 31.4064 69.9938 31.0719 69.3468 30.6246C68.3935 29.9656 67.2601 29.4557 66.2604 28.8345C65.4538 28.3333 64.6967 27.8198 63.8277 27.3732C62.1612 26.5168 60.3969 25.5344 58.2671 25.5344" stroke="#252729" stroke-width="3" stroke-linecap="round"/>
<path d="M22.0849 22.2682C22.0849 19.3283 20.7697 16.424 19.9997 13.5612C19.3353 11.0909 18.8553 8.6551 19.0398 6.1329C19.1428 4.72545 19.6779 3.97657 21.4312 3.36858C23.2828 2.72649 25.3954 2.26919 27.422 2.05949C28.3675 1.96165 29.8423 1.93971 30.6822 2.35175C31.8963 2.94735 32.6198 4.13773 33.2473 5.06127C33.9344 6.07246 34.4551 7.09638 34.8112 8.197C35.6324 10.735 36.1152 13.3893 35.8621 15.9968C35.6202 18.4889 35.7048 20.8863 35.1422 23.3703C35.1076 23.5231 34.6965 25.3276 35.2746 25.0569C37.1178 24.1938 39.8853 24.4602 41.9439 24.4602C42.2569 24.4602 43.4149 24.5941 43.6485 24.3506C43.7423 24.2528 43.757 23.9215 43.7809 23.8391C43.99 23.1188 44.2301 22.4035 44.4428 21.6837C45.287 18.8282 45.896 15.9438 46.7266 13.0863C47.4655 10.5446 48.0449 7.85996 50.2682 5.75539C52.9083 3.25616 57.827 1.62114 61.9022 3.02761C62.9862 3.40172 63.8999 3.43494 64.2357 4.33061C64.8003 5.83673 64.6746 7.52029 64.6825 9.0677C64.6976 12.0252 65.3533 15.6678 63.7557 18.5053C63.0825 19.7011 62.0042 20.7991 61.1906 21.9394C60.5404 22.8509 59.7091 23.4033 58.642 23.9975C58.3902 24.1377 57.1126 24.9082 57.3843 25.0082" stroke="#252729" stroke-width="3" stroke-linecap="round"/>
</svg>