<svg width="77" height="62" viewBox="0 0 77 62" fill="none" xmlns="http://www.w3.org/2000/svg">
<path d="M20.7336 13.0099C16.1474 13.3772 12.4583 15.6906 8.58647 17.845C6.93879 18.7617 5.35375 19.9424 4.10164 21.3281C2.9229 22.6326 2.54618 23.8724 2.33915 25.5747C1.81123 29.9154 1.85755 34.1385 2.7777 38.4337C3.39958 41.3367 4.80946 43.8539 6.12064 46.5054C7.00873 48.3014 8.53147 49.3489 9.8773 50.7838C12.5753 53.6604 15.8599 55.5712 19.6331 56.931C23.3597 58.2741 27.6715 58.3287 31.5567 59.1021C37.6258 60.31 43.7274 60.0451 49.8684 59.7542C53.9918 59.5588 58.5271 59.3843 61.6928 56.5414C63.5168 54.9033 65.5411 53.4069 67.543 51.9767C69.4209 50.6351 71.6066 49.3442 72.9959 47.4915C75.0309 44.7779 75.1809 40.902 74.8825 37.6942C74.5417 34.0295 73.8673 30.5794 72.7973 27.0538C72.4131 25.7879 71.9862 24.527 71.2334 23.4116C70.7418 22.6832 69.9938 22.2462 69.3468 21.6621C68.3935 20.8014 67.2601 20.1354 66.2604 19.3241C65.4538 18.6695 64.6967 17.9988 63.8277 17.4155C62.1612 16.297 60.3969 15.0139 58.2671 15.0139" stroke="#252729" stroke-width="3" stroke-linecap="round"/>
<path d="M21.6002 12.2488C21.4679 12.0543 21.3975 11.7866 21.3275 11.5488C21.1891 11.0789 20.8694 10.6229 20.8298 10.105C20.7338 8.85146 20.8916 7.6182 21.428 6.56743C22.0011 5.44456 22.3743 4.21624 23.2368 3.38612C23.6414 2.99682 24.1331 2.78934 24.615 2.66111C24.8661 2.59432 24.9909 2.45078 25.1367 2.19236C25.2831 1.93275 25.5853 2.0111 25.8018 2.0111C27.5891 2.0111 29.3847 3.28221 30.1757 5.44241C30.5044 6.34004 30.7827 7.16522 30.9892 8.1362C31.1503 8.89345 31.431 9.59715 31.6783 10.3112C31.8173 10.7124 32.3007 10.5561 32.578 10.5612C33.1493 10.5717 33.725 10.6828 34.296 10.73C35.4468 10.8251 36.585 10.8478 37.7175 11.1737C38.6119 11.4312 39.4768 11.8418 40.3782 12.0613C41.2217 12.2667 42.1011 12.0664 42.9528 12.1488C43.6106 12.2124 44.2203 12.5863 44.8909 12.5863C45.1085 12.5863 45.0727 11.7458 45.0967 11.5363C45.2468 10.2224 45.7777 8.77783 46.3217 7.66119C46.8169 6.64489 47.4367 6.27121 48.1498 5.58616C49.188 4.58867 50.4523 3.63548 51.7197 3.27362C53.507 2.76331 55.6916 1.88611 57.1655 3.81113C58.1411 5.08536 58.118 7.07618 58.2901 8.72371C58.4312 10.076 58.337 11.3254 58.1896 12.6738C58.1316 13.204 58.1647 14.2188 57.8642 14.6113" stroke="#252729" stroke-width="3" stroke-linecap="round"/>
</svg>
