<svg width="86" height="62" viewBox="0 0 86 62" fill="none" xmlns="http://www.w3.org/2000/svg">
<path d="M23.313 23.3703C23.313 20.4304 22.5699 16.424 21.705 13.5612C20.9586 11.0909 20.4195 8.6551 20.6268 6.1329C20.7425 4.72545 21.3435 3.97657 23.313 3.36858C25.3928 2.72649 27.7659 2.26919 30.0424 2.05949C31.1044 1.96165 32.761 1.93971 33.7045 2.35175C35.0683 2.94735 35.881 4.13773 36.5859 5.06127C37.3577 6.07246 37.9425 7.09638 38.3426 8.197C39.265 10.735 39.8073 13.3893 39.523 15.9968C39.2513 18.4889 39.3463 20.8863 38.7144 23.3703C38.6755 23.5231 38.2137 25.3276 38.8631 25.0569C40.9336 24.1938 44.0422 24.4602 46.3547 24.4602C46.7062 24.4602 48.007 24.5941 48.2694 24.3506C48.3747 24.2528 48.3912 23.9215 48.4181 23.8391C48.653 23.1188 48.9226 22.4035 49.1617 21.6837C50.1099 18.8282 50.794 15.9438 51.727 13.0863C52.557 10.5446 53.2078 7.85996 55.7052 5.75539C58.6709 3.25616 64.196 1.62114 68.7736 3.02761C69.9912 3.40172 71.0175 3.43494 71.3947 4.33061C72.0289 5.83673 71.8877 7.52029 71.8966 9.0677C71.9136 12.0252 72.6501 15.6678 70.8556 18.5053C70.0994 19.7011 68.8881 20.7991 67.9742 21.9394C67.2438 22.8509 66.3101 23.4033 65.1115 23.9975C64.8286 24.1377 63.3935 24.9082 63.6987 25.0082" stroke="#252729" stroke-width="3" stroke-linecap="round"/>
<path d="M23.0432 24.022C17.8916 24.3032 13.7477 26.0745 9.3985 27.724C7.54768 28.4259 5.76722 29.3299 4.36074 30.3909C3.03669 31.3896 2.61351 32.3389 2.38096 33.6423C1.78796 36.9658 1.83999 40.1992 2.87358 43.4879C3.57213 45.7105 5.15583 47.6379 6.62866 49.668C7.62624 51.0431 9.33672 51.8452 10.8485 52.9438C13.8791 55.1462 17.5687 56.6093 21.807 57.6504C25.9931 58.6788 30.8364 58.7206 35.2007 59.3127C42.018 60.2376 48.8718 60.0347 55.77 59.812C60.4017 59.6624 65.4962 59.5288 69.0522 57.3521C71.1011 56.0979 73.3749 54.9522 75.6236 53.8571C77.733 52.8299 80.1882 51.8415 81.7488 50.423C84.0347 48.3454 84.2032 45.3777 83.868 42.9216C83.4852 40.1158 82.7276 37.4742 81.5258 34.7748C81.0942 33.8055 80.6146 32.8401 79.769 31.9861C79.2168 31.4284 78.3766 31.0938 77.6498 30.6466C76.579 29.9876 75.3058 29.4777 74.1829 28.8565C73.2769 28.3553 72.4264 27.8418 71.4502 27.3952C69.5784 26.5388 67.5966 25.5564 65.2042 25.5564" stroke="#252729" stroke-width="3" stroke-linecap="round"/>
</svg>
