<svg width="86" height="62" viewBox="0 0 86 62" fill="none" xmlns="http://www.w3.org/2000/svg">
<path d="M23.0432 15.4614C17.8916 15.8096 13.7477 18.0023 9.3985 20.0442C7.54768 20.9132 5.76722 22.0323 4.36074 23.3457C3.03669 24.5821 2.61351 25.7572 2.38096 27.3707C1.78796 31.485 1.83999 35.4877 2.87358 39.5589C3.57213 42.3104 5.15583 44.6963 6.62866 47.2095C7.62624 48.9117 9.33672 49.9046 10.8485 51.2646C13.8791 53.9911 17.5687 55.8023 21.807 57.0911C25.9931 58.3642 30.8364 58.4159 35.2007 59.1489C42.018 60.2938 48.8718 60.0427 55.77 59.767C60.4017 59.5818 65.4962 59.4164 69.0522 56.7218C71.1011 55.1692 73.3749 53.7509 75.6236 52.3953C77.733 51.1236 80.1882 49.9001 81.7488 48.1441C84.0347 45.5721 84.2032 41.8983 83.868 38.8579C83.4852 35.3844 82.7276 32.1143 81.5258 28.7727C81.0942 27.5728 80.6146 26.3776 79.769 25.3205C79.2168 24.6301 78.3766 24.2159 77.6498 23.6622C76.579 22.8465 75.3058 22.2152 74.1829 21.4462C73.2769 20.8258 72.4264 20.1901 71.4502 19.6372C69.5784 18.577 67.5966 17.3609 65.2042 17.3609" stroke="#252729" stroke-width="3" stroke-linecap="round"/>
<path d="M23.9524 14.7831C23.9524 13.5804 23.8641 12.3355 24.036 11.1448C24.2766 9.47777 24.387 7.35122 25.1893 5.86689C25.5888 5.12789 25.9393 4.18752 26.3762 3.49967C26.7061 2.98026 27.0542 1.75217 27.8054 2.04433C29.0788 2.53964 30.3821 3.88558 31.0901 5.11159C32.0023 6.69133 33.1785 7.98646 34.0321 9.60654C34.6847 10.8453 35.493 11.8793 36.2971 12.987C36.5126 13.2839 36.6748 13.9378 37.0744 13.9541C37.8606 13.9862 38.6532 13.9541 39.4397 13.9541C43.565 13.9541 47.6299 14.4515 51.7593 14.4515C52.4031 14.4515 52.5805 11.8069 52.687 11.2645C53.0367 9.48443 54.4902 7.96793 55.7293 6.86167C56.3315 6.32405 56.8177 5.57668 57.5012 5.16685C57.8812 4.93901 58.3397 4.84762 58.6964 4.57735C59.7174 3.80373 60.3524 4.59618 60.9697 5.67346C63.0821 9.35938 64.2944 13.1089 65.466 17.2914" stroke="#252729" stroke-width="3" stroke-linecap="round"/>
</svg>
