<svg width="86" height="62" viewBox="0 0 86 62" fill="none" xmlns="http://www.w3.org/2000/svg">
<path d="M23.0432 13.0098C17.8916 13.3771 13.7477 15.6905 9.3985 17.8448C7.54768 18.7616 5.76722 19.9423 4.36074 21.328C3.03669 22.6325 2.61351 23.8723 2.38096 25.5746C1.78796 29.9153 1.83999 34.1383 2.87358 38.4336C3.57213 41.3366 5.15583 43.8538 6.62866 46.5053C7.62624 48.3012 9.33672 49.3488 10.8485 50.7837C13.8791 53.6603 17.5687 55.5711 21.807 56.9309C25.9931 58.274 30.8364 58.3286 35.2007 59.1019C42.018 60.3099 48.8718 60.045 55.77 59.754C60.4017 59.5587 65.4962 59.3842 69.0522 56.5413C71.1011 54.9032 73.3749 53.4068 75.6236 51.9766C77.733 50.635 80.1882 49.344 81.7488 47.4914C84.0347 44.7778 84.2032 40.9019 83.868 37.694C83.4852 34.0294 82.7276 30.5793 81.5258 27.0537C81.0942 25.7878 80.6146 24.5268 79.769 23.4115C79.2168 22.6831 78.3766 22.2461 77.6498 21.662C76.579 20.8013 75.3058 20.1353 74.1829 19.324C73.2769 18.6694 72.4264 17.9987 71.4502 17.4154C69.5784 16.2969 67.5966 15.0138 65.2042 15.0138" stroke="#252729" stroke-width="3" stroke-linecap="round"/>
<path d="M24.0167 12.2488C23.8681 12.0543 23.789 11.7866 23.7103 11.5488C23.5549 11.0789 23.1958 10.6229 23.1513 10.105C23.0435 8.85146 23.2207 7.6182 23.8232 6.56743C24.467 5.44456 24.8862 4.21624 25.8551 3.38612C26.3095 2.99682 26.8618 2.78934 27.4032 2.66111C27.6852 2.59432 27.8254 2.45078 27.9891 2.19236C28.1537 1.93275 28.493 2.0111 28.7363 2.0111C30.7439 2.0111 32.7609 3.28221 33.6494 5.44241C34.0187 6.34004 34.3313 7.16522 34.5633 8.1362C34.7442 8.89345 35.0595 9.59715 35.3373 10.3112C35.4934 10.7124 36.0365 10.5561 36.3479 10.5612C36.9896 10.5717 37.6363 10.6828 38.2777 10.73C39.5704 10.8251 40.849 10.8478 42.1211 11.1737C43.1257 11.4312 44.0973 11.8418 45.1098 12.0613C46.0573 12.2667 47.0451 12.0664 48.0018 12.1488C48.7406 12.2124 49.4256 12.5863 50.1788 12.5863C50.4233 12.5863 50.3831 11.7458 50.41 11.5363C50.5786 10.2224 51.1749 8.77783 51.7861 7.66119C52.3423 6.64489 53.0386 6.27121 53.8395 5.58616C55.0057 4.58867 56.4259 3.63548 57.8495 3.27362C59.8572 2.76331 62.3111 1.88611 63.9667 3.81113C65.0626 5.08536 65.0367 7.07618 65.2299 8.72371C65.3885 10.076 65.2827 11.3254 65.1171 12.6738C65.0519 13.204 65.0891 14.2188 64.7515 14.6113" stroke="#252729" stroke-width="3" stroke-linecap="round"/>
</svg>
