<svg width="319" height="343" viewBox="0 0 319 343" fill="none" xmlns="http://www.w3.org/2000/svg">
<mask id="path-1-inside-1_498_7155" fill="white">
<path fill-rule="evenodd" clip-rule="evenodd" d="M159.5 342.492C71.4106 342.492 0 265.823 0 171.246C0 76.6695 71.4106 0 159.5 0C206.559 0 248.858 21.8806 278.053 56.683L317.365 56.2734L289.019 71.2821C307.886 99.4112 319 133.935 319 171.246C319 265.823 247.589 342.492 159.5 342.492Z"/>
</mask>
<path fill-rule="evenodd" clip-rule="evenodd" d="M159.5 342.492C71.4106 342.492 0 265.823 0 171.246C0 76.6695 71.4106 0 159.5 0C206.559 0 248.858 21.8806 278.053 56.683L317.365 56.2734L289.019 71.2821C307.886 99.4112 319 133.935 319 171.246C319 265.823 247.589 342.492 159.5 342.492Z" fill="white"/>
<path d="M278.053 56.683L278.068 58.1829L277.359 58.1903L276.903 57.647L278.053 56.683ZM317.365 56.2734L317.35 54.7735L318.067 57.5991L317.365 56.2734ZM289.019 71.2821L287.773 72.1177L286.846 70.7353L288.317 69.9565L289.019 71.2821ZM1.5 171.246C1.5 265.096 72.3376 340.992 159.5 340.992V343.992C70.4836 343.992 -1.5 266.549 -1.5 171.246H1.5ZM159.5 1.5C72.3376 1.5 1.5 77.3958 1.5 171.246H-1.5C-1.5 75.9432 70.4836 -1.5 159.5 -1.5V1.5ZM276.903 57.647C247.968 23.1535 206.077 1.5 159.5 1.5V-1.5C207.041 -1.5 249.748 20.6078 279.202 55.719L276.903 57.647ZM317.381 57.7733L278.068 58.1829L278.037 55.1831L317.35 54.7735L317.381 57.7733ZM288.317 69.9565L316.663 54.9478L318.067 57.5991L289.721 72.6078L288.317 69.9565ZM317.5 171.246C317.5 134.235 306.476 100.002 287.773 72.1177L290.264 70.4466C309.296 98.8208 320.5 133.635 320.5 171.246H317.5ZM159.5 340.992C246.662 340.992 317.5 265.096 317.5 171.246H320.5C320.5 266.549 248.516 343.992 159.5 343.992V340.992Z" fill="black" mask="url(#path-1-inside-1_498_7155)"/>
</svg>
