<svg width="350" height="462" viewBox="0 0 350 462" fill="none" xmlns="http://www.w3.org/2000/svg">
<path d="M348.248 187.846C348.248 193.499 348.281 199.089 348.314 204.606C348.431 224.443 348.543 243.342 347.095 260.882C345.245 283.289 340.856 303.352 330.755 320.159C310.61 353.679 267.444 374.693 174.642 374.693C83.9213 374.693 40.7399 353.684 20.0757 320.149C9.71622 303.337 4.94254 283.27 2.77076 260.868C0.912902 241.704 0.964144 220.909 1.01801 199.049C1.02714 195.345 1.03634 191.609 1.03634 187.846C1.03634 135.973 5.70771 89.3082 29.6595 55.5981C53.5503 21.9738 96.8176 1 174.642 1C261.827 1 305.034 21.9988 326.581 55.5592C337.381 72.3799 342.809 92.4528 345.527 114.849C348.247 137.251 348.248 161.895 348.248 187.846Z" fill="white" stroke="black" stroke-width="2"/>
<path d="M275 393C275 403.889 264.425 413 251 413C237.575 413 227 403.889 227 393C227 382.111 237.575 373 251 373C264.425 373 275 382.111 275 393Z" fill="white" stroke="black" stroke-width="2"/>
<path d="M245 428C245 435.644 238.152 442 229.5 442C220.848 442 214 435.644 214 428C214 420.356 220.848 414 229.5 414C238.152 414 245 420.356 245 428Z" fill="white" stroke="black" stroke-width="2"/>
<path d="M213 452C213 456.925 208.793 461 203.5 461C198.207 461 194 456.925 194 452C194 447.075 198.207 443 203.5 443C208.793 443 213 447.075 213 452Z" fill="white" stroke="black" stroke-width="2"/>
</svg>
