<svg width="92" height="57" viewBox="0 0 92 57" fill="none" xmlns="http://www.w3.org/2000/svg">
<path d="M43.5513 14.3648C43.8197 14.0621 43.6925 13.5899 43.7077 13.2148C43.7911 11.1661 44.2767 9.28228 43.7251 7.20352C42.8722 3.98939 41.3267 1.71249 37.9199 1.14C35.9084 0.801962 33.293 1.07211 31.4543 1.99377C28.3453 3.55212 28.3409 7.54591 29.3859 10.4792C30.053 12.3516 31.4944 13.8464 31.9757 15.7761" stroke="black" stroke-width="1.5" stroke-linecap="round"/>
<path d="M46.8523 13.08C44.9815 13.4132 43.1525 14.8037 41.6968 15.9435C39.7213 17.4903 37.689 19.4427 38.2627 22.2115C38.9825 25.6857 42.0716 26.4596 45.1308 26.7684C46.7706 26.9339 49.1587 27.5078 49.6979 25.474C49.7325 25.3434 50.2346 23.3901 50.3303 23.559C50.9839 24.7136 53.1428 24.2884 54.1947 24.0732C56.6036 23.5805 59.5079 22.0278 59.965 19.3745C60.2 18.0104 60.2592 16.0351 59.1394 15.0304C59.1063 15.0007 59.7002 13.507 59.7279 13.3814C60.2334 11.0851 60.2942 8.62571 58.6037 6.78541C56.7673 4.7864 54.6945 4.01812 52.0956 5.02117C51.044 5.42704 50.3416 6.53205 49.4871 7.22869C48.6533 7.90847 47.9836 8.49641 47.4056 9.40962C46.7634 10.4242 45.8808 11.4176 45.5524 12.5835C45.2316 13.7224 44.8327 14.7791 44.639 15.9524" stroke="black" stroke-width="1.5" stroke-linecap="round"/>
<path d="M60.5002 12.067C62.2461 10.1015 64.8296 -0.639819 68.8385 3.89955C70.0001 5.21488 69.8129 7.88423 69.3498 9.38567C68.778 11.2392 68.4757 13.1776 67.9659 15.0482C67.8979 15.2977 67.6849 15.5431 67.913 15.7538C69.2056 16.9478 70.4343 18.261 71.6944 19.4935C75.9081 23.6153 76.7444 28.6853 75.9605 34.329C75.1959 39.8337 73.9227 45.6293 69.861 49.6937C66.5008 53.0561 61.3081 53.6776 56.807 54.4389C54.0554 54.9042 51.2805 55.2963 48.5215 55.7178C46.8395 55.9748 45.4701 56.2907 43.8499 55.8677C39.0775 54.622 33.8707 53.4774 29.5795 50.9638C27.699 49.8623 26.3764 48.4162 25.1018 46.6684C23.7887 44.8676 22.293 43.1917 21.153 41.2704C19.8382 39.0546 19.4887 36.8453 19.1786 34.2937C18.8041 31.2127 18.5838 27.9443 20.2011 25.1208C21.1457 23.4716 23.1198 21.1414 25.2429 21.1164C26.8826 21.0971 28.4983 21.434 30.1172 21.434C31.5776 21.434 31.4658 19.1385 31.4658 18.2587" stroke="black" stroke-width="1.5" stroke-linecap="round"/>
<path d="M31.4475 36.8213C31.4475 37.421 31.4475 38.0065 31.4475 38.6123" stroke="black" stroke-width="1.5" stroke-linecap="round"/>
<path d="M36.373 36.373V38.1641" stroke="black" stroke-width="1.5" stroke-linecap="round"/>
<path d="M26.0745 27.8657C30.074 27.8657 34.0819 28.6337 37.9081 29.7477C41.198 30.7056 43.5441 32.5448 45.6196 35.2178C47.493 37.6306 47.972 40.6243 48.4625 43.5373" stroke="black" stroke-width="1.5" stroke-linecap="round"/>
<path d="M68.1643 14.646C71.4035 14.1174 75.67 14.5499 78.5343 16.1801C80.8689 17.5088 82.1704 20.5396 82.1397 23.2086C82.1254 24.4586 81.459 25.9945 80.6583 26.9725C80.4616 27.2129 81.8071 27.3482 81.8452 27.3561C84.5992 27.928 87.4361 28.5624 90.0645 29.577C90.7185 29.8294 91.2183 29.9108 90.9034 30.5403C90.209 31.9283 89.0365 33.068 87.9941 34.1972C86.9549 35.323 85.9623 36.88 84.6742 37.7382C83.769 38.3414 82.4781 38.6691 81.4436 39.0137C78.9341 39.8498 75.9379 39.3705 73.3047 39.3705" stroke="black" stroke-width="1.5" stroke-linecap="round"/>
<path d="M57.7111 40.4028C57.931 42.4374 58.7425 44.4162 58.9208 46.506C58.9948 47.3742 59.5791 49.6472 58.8364 50.4109C57.7598 51.5178 56.6935 51.5968 55.1792 51.5968" stroke="black" stroke-width="1.5" stroke-linecap="round"/>
<path d="M27.8656 50.099C23.912 50.099 19.5262 48.8247 15.7997 47.7025C13.2812 46.9441 12.1119 45.4486 11.3965 42.8952C11.0288 41.5831 11.1391 40.215 11.1391 38.8628C11.1391 38.0644 13.8469 37.709 14.4844 37.069C15.2447 36.3059 15.0866 34.296 14.8419 33.3953C14.4893 32.0978 14.0748 30.5982 13.4551 29.406C13.0462 28.6192 10.7213 28.4737 9.96687 28.2293C7.34714 27.3803 5.89586 26.7191 3.80523 28.8176C3.09475 29.5308 2.40945 30.3226 1.87525 31.1567C0.31764 33.5888 0.948118 36.6148 2.90457 38.4753C3.35287 38.9016 3.9295 38.536 4.31989 39.0063C5.46596 40.3868 4.98836 43.1257 6.04972 44.6172C6.47111 45.2094 6.68898 46.0787 7.27919 46.6119C8.12815 47.3788 9.64372 48.3786 10.167 49.3241C10.4908 49.909 11.2686 50.1863 11.6395 50.7447C12.5485 52.1134 14.7796 51.9451 15.7711 52.9403" stroke="black" stroke-width="1.5" stroke-linecap="round"/>
<path d="M33.3217 20.5175C33.3474 21.0062 33.6045 21.4992 33.7974 21.939C34.127 22.6905 34.4361 24.3696 35.3208 24.6913C35.9325 24.9137 36.6946 24.8582 37.3312 24.8781C37.7394 24.891 38.7017 25.0507 39.0641 24.7366C39.6309 24.2454 38.8963 23.0877 38.6054 22.6978C37.8373 21.6686 36.9605 20.7024 36.1533 19.7021C35.6823 19.1185 35.3564 18.935 34.6356 18.6261C34.0545 18.377 33.5189 17.9036 33.2991 18.6261C32.9896 19.643 32.6082 20.4519 32.6082 21.5369" stroke="black" stroke-width="1.5" stroke-linecap="round"/>
<path d="M60.4366 23.4734C59.6089 23.0721 59.14 23.4915 58.3299 23.8811C56.7594 24.6365 54.7935 25.3202 53.505 26.5315C52.9466 27.0563 51.9224 27.9574 52.2931 28.8194C52.6126 29.5625 53.3691 29.6741 54.0826 29.8387C55.5712 30.1822 57.022 29.926 58.4545 29.4196C59.6415 29.0001 61.1741 28.4042 61.4956 27.0468C61.6462 26.4111 61.6598 25.7109 61.6598 25.059C61.6598 24.9195 61.8522 24.2548 61.6995 24.1869C61.3062 24.0122 60.8506 23.8827 60.4366 23.7792" stroke="black" stroke-width="1.5" stroke-linecap="round"/>
</svg>
