<svg width="205" height="127" viewBox="0 0 205 127" fill="none" xmlns="http://www.w3.org/2000/svg">
<path d="M97.0317 31.848C97.6312 31.172 97.347 30.1174 97.3811 29.2797C97.5674 24.7043 98.6518 20.4971 97.4199 15.8546C95.5152 8.67631 92.0635 3.59124 84.455 2.31266C79.9625 1.55771 74.1215 2.16105 70.015 4.21942C63.0716 7.69974 63.0619 16.6192 65.3957 23.1703C66.8855 27.3519 70.1047 30.6903 71.1795 35" stroke="#EF22EF" stroke-width="3" stroke-linecap="round"/>
<path d="M104.404 28.9787C100.226 29.723 96.1408 32.8284 92.8897 35.374C88.4779 38.8285 83.939 43.1888 85.2202 49.3725C86.8279 57.1316 93.7268 58.8599 100.559 59.5495C104.221 59.9192 109.555 61.2009 110.759 56.6588C110.836 56.367 111.958 52.0047 112.171 52.382C113.631 54.9605 118.452 54.011 120.802 53.5304C126.182 52.4299 132.668 48.9622 133.689 43.0365C134.214 39.99 134.346 35.5786 131.845 33.3347C131.771 33.2683 133.097 29.9325 133.159 29.6519C134.288 24.5236 134.424 19.0309 130.649 14.9209C126.547 10.4564 121.918 8.7406 116.114 10.9807C113.765 11.8872 112.196 14.3551 110.288 15.9109C108.426 17.4291 106.93 18.7421 105.639 20.7816C104.205 23.0475 102.234 25.2662 101.501 27.8699C100.784 30.4135 99.8934 32.7735 99.4607 35.3938" stroke="#EF22EF" stroke-width="3" stroke-linecap="round"/>
<path d="M134.883 26.7164C138.783 22.3268 144.553 -1.66221 153.506 8.47573C156.1 11.4133 155.682 17.3749 154.647 20.7281C153.371 24.8677 152.695 29.1968 151.557 33.3744C151.405 33.9316 150.929 34.4796 151.439 34.9503C154.326 37.6167 157.07 40.5496 159.884 43.3023C169.294 52.5076 171.162 63.8305 169.412 76.4349C167.704 88.7288 164.86 101.672 155.789 110.749C148.285 118.259 136.688 119.647 126.635 121.347C120.49 122.386 114.293 123.262 108.131 124.203C104.375 124.777 101.316 125.483 97.6978 124.538C87.0394 121.756 75.4109 119.2 65.8272 113.586C61.6274 111.126 58.6736 107.896 55.827 103.993C52.8942 99.9712 49.5539 96.2282 47.0079 91.9375C44.0715 86.9887 43.291 82.0547 42.5984 76.3561C41.7621 69.4751 41.2699 62.1758 44.8819 55.8699C46.9916 52.1867 51.4005 46.9826 56.142 46.9268C59.8041 46.8837 63.4125 47.636 67.028 47.636C70.2896 47.636 70.0398 42.5094 70.0398 40.5446" stroke="#EF22EF" stroke-width="3" stroke-linecap="round"/>
<path d="M70 82C70 83.3394 70 84.647 70 86" stroke="#EF22EF" stroke-width="3" stroke-linecap="round"/>
<path d="M81 81V85" stroke="#EF22EF" stroke-width="3" stroke-linecap="round"/>
<path d="M58 62C66.9323 62 75.8834 63.7152 84.4286 66.2031C91.776 68.3423 97.0156 72.4499 101.651 78.4198C105.835 83.8083 106.905 90.4943 108 97" stroke="#EF22EF" stroke-width="3" stroke-linecap="round"/>
<path d="M152 32.4764C159.234 31.296 168.763 32.2619 175.16 35.9027C180.374 38.87 183.28 45.6389 183.212 51.5996C183.18 54.3914 181.691 57.8215 179.903 60.0059C179.464 60.5426 182.469 60.8447 182.554 60.8624C188.705 62.1397 195.04 63.5566 200.91 65.8225C202.371 66.3863 203.487 66.5681 202.784 67.9738C201.233 71.0737 198.615 73.6191 196.287 76.141C193.966 78.6553 191.749 82.1325 188.872 84.0493C186.851 85.3963 183.967 86.1282 181.657 86.8978C176.053 88.765 169.361 87.6946 163.48 87.6946" stroke="#EF22EF" stroke-width="3" stroke-linecap="round"/>
<path d="M128.655 90C129.146 94.5439 130.958 98.9631 131.356 103.63C131.522 105.569 132.826 110.646 131.168 112.351C128.763 114.823 126.382 115 123 115" stroke="#EF22EF" stroke-width="3" stroke-linecap="round"/>
<path d="M62 111.654C53.1703 111.654 43.3752 108.808 35.0527 106.302C29.428 104.608 26.8166 101.268 25.2188 95.5658C24.3978 92.6354 24.6441 89.58 24.6441 86.5601C24.6441 84.777 30.6914 83.9833 32.1153 82.554C33.8131 80.8497 33.46 76.3609 32.9135 74.3495C32.1262 71.4517 31.2004 68.1025 29.8165 65.4399C28.9032 63.6828 23.711 63.3579 22.026 62.8119C16.1753 60.9159 12.9341 59.4392 8.26502 64.1259C6.67829 65.7186 5.14777 67.487 3.95472 69.3499C0.476061 74.7816 1.88413 81.5397 6.25355 85.6948C7.25476 86.6469 8.54255 85.8304 9.41443 86.8806C11.974 89.9637 10.9074 96.0806 13.2777 99.4117C14.2188 100.734 14.7054 102.676 16.0235 103.866C17.9196 105.579 21.3043 107.812 22.473 109.924C23.1961 111.23 24.9333 111.849 25.7616 113.097C27.7918 116.153 32.7746 115.777 34.9888 118" stroke="#EF22EF" stroke-width="3" stroke-linecap="round"/>
<path d="M74.1852 45.589C74.2426 46.6803 74.8168 47.7813 75.2476 48.7635C75.9837 50.4419 76.6739 54.1918 78.6498 54.9103C80.0159 55.4071 81.718 55.283 83.1397 55.3276C84.0513 55.3563 86.2004 55.713 87.0099 55.0115C88.2756 53.9145 86.6352 51.329 85.9854 50.4583C84.27 48.1596 82.3119 46.0018 80.509 43.7677C79.4572 42.4644 78.7294 42.0546 77.1194 41.3646C75.8217 40.8085 74.6256 39.7512 74.1346 41.3646C73.4434 43.6357 72.5916 45.4423 72.5916 47.8655" stroke="#EF22EF" stroke-width="3" stroke-linecap="round"/>
<path d="M134.742 52.1908C132.894 51.2945 131.846 52.2313 130.037 53.1014C126.53 54.7884 122.139 56.3154 119.261 59.0205C118.014 60.1927 115.727 62.2052 116.555 64.1302C117.269 65.7899 118.958 66.039 120.551 66.4068C123.876 67.1739 127.116 66.6017 130.315 65.4708C132.966 64.5338 136.389 63.203 137.107 60.1715C137.444 58.7518 137.474 57.1879 137.474 55.7321C137.474 55.4205 137.904 53.936 137.563 53.7844C136.684 53.3941 135.667 53.1049 134.742 52.8738" stroke="#EF22EF" stroke-width="3" stroke-linecap="round"/>
</svg>
