<svg width="18" height="17" viewBox="0 0 18 17" fill="none" xmlns="http://www.w3.org/2000/svg">
<g clip-path="url(#clip0_1273_2944)">
<path fill-rule="evenodd" clip-rule="evenodd" d="M8.99996 1.41699C5.08794 1.41699 1.91663 4.58831 1.91663 8.50033C1.91663 12.4123 5.08794 15.5837 8.99996 15.5837C12.912 15.5837 16.0833 12.4123 16.0833 8.50033C16.0833 4.58831 12.912 1.41699 8.99996 1.41699ZM0.666626 8.50033C0.666626 3.89795 4.39759 0.166992 8.99996 0.166992C13.6023 0.166992 17.3333 3.89795 17.3333 8.50033C17.3333 13.1027 13.6023 16.8337 8.99996 16.8337C4.39759 16.8337 0.666626 13.1027 0.666626 8.50033Z" fill="#EF22EF"/>
<path fill-rule="evenodd" clip-rule="evenodd" d="M16.7083 8.50033C16.7083 12.7575 13.2572 16.2087 8.99996 16.2087C4.74276 16.2087 1.29163 12.7575 1.29163 8.50033C1.29163 4.24313 4.74276 0.791992 8.99996 0.791992C13.2572 0.791992 16.7083 4.24313 16.7083 8.50033ZM14.0727 6.11956C14.3226 5.88151 14.3323 5.4859 14.0942 5.23594C13.8562 4.98598 13.4605 4.97633 13.2106 5.21439L7.69108 10.4711L4.78876 7.71385C4.5385 7.47611 4.1429 7.48625 3.90516 7.73651C3.66742 7.98676 3.67757 8.38236 3.92782 8.6201L7.26115 11.7868C7.5026 12.0161 7.8815 12.0159 8.12266 11.7862L14.0727 6.11956Z" fill="#EF22EF"/>
</g>
<defs>
<clipPath id="clip0_1273_2944">
<rect width="16.6667" height="16.6667" fill="white" transform="translate(0.666626 0.166992)"/>
</clipPath>
</defs>
</svg>
