<svg width="299" height="368" viewBox="0 0 299 368" fill="none" xmlns="http://www.w3.org/2000/svg">
<path d="M10.4163 31.8695C10.3706 25.2757 8.41012 13.8825 10.1815 6.1862C21.4402 6.29396 32.3259 6.72099 43.6921 8.25696C87.3214 14.1528 131.957 11.7638 176.016 11.7638C200.032 11.7638 222.5 17.0629 248.256 17.0629C255 17.0629 278.5 11.7638 278.5 11.7638C278.5 11.7638 285.818 107.366 287.844 145.49C290.743 200.039 297.609 255.06 296.494 309.687C296.204 323.891 298.017 347.913 289.48 360.185C284.747 366.99 271.371 366.295 264.387 366.419C235.137 366.937 205.452 362.301 176.405 359.483C140.872 356.036 105.623 350.254 69.8762 349.898C54.834 349.748 39.784 351.067 24.8332 351.067C17.0042 351.067 22.5439 305.353 23.0409 300.413C25.4972 275.994 27.5321 251.435 25.2229 226.848C20.52 176.776 18.2789 126.535 13.5335 76.4449C12.1305 61.6357 10.5197 46.7589 10.4163 31.8695Z" fill="white"/>
<path d="M11.8191 1.9447C7.51303 8.94201 10.361 23.906 10.4163 31.8695C10.5197 46.7589 12.1305 61.6357 13.5335 76.4449C18.2789 126.535 20.52 176.776 25.2229 226.848C27.5321 251.435 25.4972 275.994 23.0409 300.413C22.5439 305.353 17.0042 351.067 24.8332 351.067C39.784 351.067 54.834 349.748 69.8762 349.898C105.623 350.254 140.872 356.036 176.405 359.483C205.452 362.301 235.137 366.937 264.387 366.419C271.371 366.295 284.747 366.99 289.48 360.185C298.017 347.913 296.204 323.891 296.494 309.687C297.609 255.06 290.743 200.039 287.844 145.49C285.818 107.366 278.5 11.7638 278.5 11.7638C278.5 11.7638 255 17.0629 248.256 17.0629C222.5 17.0629 200.032 11.7638 176.016 11.7638C131.957 11.7638 87.3214 14.1528 43.6921 8.25696C29.5984 6.35241 16.2434 6.15287 2 6.15287" stroke="black" stroke-width="3" stroke-linecap="round"/>
</svg>
