<svg width="24" height="25" viewBox="0 0 24 25" fill="none" xmlns="http://www.w3.org/2000/svg">
<path d="M17.183 2.31904C15.9053 2.35334 14.722 3.47652 13.7101 4.15387C13.1699 4.51397 12.6211 4.88266 12.1238 5.31135C11.7036 5.67146 11.3349 6.08301 10.9147 6.44312C10.0315 7.19762 9.35408 8.27794 8.40226 8.92957C7.89634 9.27252 7.47617 9.65835 6.97883 10.0013C6.70443 10.1899 6.44718 10.4043 6.21566 10.6444C6.06131 10.7987 5.88981 11.0902 5.71832 11.2017C5.15237 11.5961 4.88655 12.3249 5.25527 12.9593C5.58112 13.5252 6.43861 13.8167 7.01313 13.4223C7.51905 13.0708 7.83632 12.5478 8.32509 12.1705C8.48801 12.0505 8.69381 11.9562 8.85673 11.8361C9.11398 11.6561 9.30263 11.416 9.54273 11.2274C10.0143 10.8587 10.5117 10.5415 10.949 10.1128C11.3606 9.7098 11.7208 9.23823 12.1066 8.80953C12.4668 8.41513 12.9041 8.08074 13.3071 7.72064C13.7101 7.36053 14.0446 7.02615 14.4733 6.72606C14.9878 6.36595 15.5109 6.01442 16.0254 5.65431C16.2655 5.49141 16.5056 5.3285 16.7542 5.18274C16.8829 5.11415 17.0029 5.04556 17.1315 4.97697L17.2601 4.8998C17.4745 4.79692 17.4402 4.78834 17.1744 4.88266C18.8294 4.83979 18.8294 2.2676 17.1744 2.31047L17.183 2.31904Z" fill="#5A5F65"/>
<path d="M4.61213 12.6506C4.998 13.328 5.45247 13.971 5.95839 14.5626C6.43001 15.1113 6.96166 15.5143 7.4933 15.9945C7.79343 16.2602 8.03352 16.5603 8.36794 16.7833C8.59089 16.9376 8.83956 17.0062 9.06251 17.1348C9.42266 17.3406 9.72278 17.5635 10.1087 17.7264C10.4602 17.8807 10.8118 18.0179 11.1462 18.2065C11.7207 18.5238 12.1838 19.0039 12.7583 19.3383C13.3928 19.707 14.0102 20.1271 14.6877 20.4186C14.8249 20.4786 15.0907 20.6415 14.8506 20.4529C14.9878 20.5558 15.1078 20.6758 15.245 20.7873C15.5023 20.9845 15.7681 21.1388 16.0339 21.3017C16.2826 21.4475 16.4884 21.6533 16.7799 21.799C17.0715 21.9448 17.3716 22.0305 17.6631 22.1591C18.2977 22.4421 19.0437 22.3478 19.421 21.6961C19.7383 21.1474 19.6011 20.2214 18.958 19.9385C18.5121 19.7413 18.0576 19.5698 17.6117 19.3897L18.1776 19.7241C17.9375 19.5355 17.7317 19.3212 17.4659 19.1668C17.243 19.0382 17.0115 18.9439 16.8057 18.7896C16.617 18.6438 16.4627 18.4552 16.2569 18.3351C16.0253 18.198 15.7595 18.1294 15.5194 18.0093C14.9363 17.7178 14.3361 17.3491 13.7873 16.9976C13.2814 16.6718 12.8612 16.2431 12.3296 15.9687C11.7979 15.6944 11.2234 15.54 10.7175 15.2314C10.1858 14.9056 9.75708 14.6226 9.29403 14.2025C8.83099 13.7824 8.38509 13.4566 7.9735 13.0021C7.51903 12.5048 7.15031 11.9561 6.81589 11.3731C5.99269 9.94123 3.77179 11.2273 4.59498 12.6678L4.61213 12.6506Z" fill="#5A5F65"/>
</svg>
