<svg width="12" height="12" viewBox="0 0 12 12" fill="none" xmlns="http://www.w3.org/2000/svg">
<g clip-path="url(#clip0_149_5221)">
<path d="M1.69092 2.74124C1.71161 2.74124 1.95985 2.95639 2.02605 3.02258C2.175 3.17153 2.27429 3.35357 2.39428 3.5232C2.70044 3.95763 3.01902 4.38378 3.32104 4.8182C3.86718 5.60843 4.4795 6.41522 5.14976 7.10616C5.46006 7.42887 5.80346 7.71849 6.1179 8.0412C6.47371 8.40529 6.82953 8.75283 7.25154 9.03831C7.64459 9.3031 8.07073 9.48928 8.45965 9.74579C8.84856 10.0023 9.29126 10.1554 9.62224 10.4657C10.2056 11.0077 11.0869 10.1347 10.4994 9.58857C9.77533 8.91832 8.79891 8.58733 7.99212 8.04534C7.54115 7.74331 7.18534 7.3544 6.80056 6.97376C6.45716 6.63864 6.10963 6.30765 5.78277 5.96011C5.05046 5.19056 4.44641 4.27207 3.83821 3.39908C3.31691 2.6585 2.70044 1.55796 1.69092 1.50004C0.892413 1.45866 0.892413 2.69987 1.69092 2.74124Z" fill="#5A5F65"/>
<path d="M2.05089 10.4656C2.8163 9.65054 3.60654 8.88513 4.47539 8.17764C5.19529 7.59014 5.91932 7.05228 6.56475 6.38616C6.93712 6.00553 7.4005 5.7035 7.78941 5.33941C8.17832 4.97532 8.53827 4.59882 8.95201 4.28025C9.26645 4.04028 9.60985 3.83755 9.92843 3.59758C10.1312 3.4445 10.338 3.29969 10.5118 3.10937C10.6732 2.93147 10.7642 2.70805 10.9048 2.51773C11.1076 2.2488 10.9462 1.82679 10.6814 1.66957C10.367 1.47925 10.0319 1.62406 9.83327 1.89299C9.70915 2.05849 9.63881 2.23639 9.48573 2.3812C9.33265 2.52601 9.15474 2.66254 8.98925 2.77425C8.64998 3.0018 8.29003 3.21281 7.97559 3.49001C7.59082 3.82928 7.22673 4.18095 6.85023 4.52435C6.44891 4.89258 5.96484 5.20288 5.60489 5.6042C5.00083 6.27859 4.22714 6.78749 3.52793 7.36258C2.68391 8.05766 1.91436 8.80238 1.1655 9.59676C0.619366 10.1801 1.49649 11.0572 2.04262 10.4739L2.05089 10.4656Z" fill="#5A5F65"/>
</g>
<defs>
<clipPath id="clip0_149_5221">
<rect width="10" height="9.15598" fill="white" transform="translate(1 1.5)"/>
</clipPath>
</defs>
</svg>
