<svg width="4" height="19" viewBox="0 0 4 19" fill="none" xmlns="http://www.w3.org/2000/svg">
<path d="M1.65898 0.704257C1.75223 0.721211 1.84124 0.653394 1.93449 0.640679C2.05317 0.627963 2.16337 0.627964 2.25662 0.69578C2.38377 0.793266 2.45582 0.962805 2.57026 1.07725C2.6847 1.19169 2.72709 1.24679 2.76524 1.39513C2.82458 1.63673 2.90511 1.88256 2.85424 2.13687C2.8161 2.32337 2.60841 2.73027 2.37953 2.74298C2.27781 2.74722 2.14641 2.68788 2.04045 2.6794C1.93449 2.67093 1.82429 2.63702 1.71832 2.60311C1.51064 2.53529 1.24785 2.55225 1.18003 2.30641C1.11222 2.06058 1.02744 1.77236 1.06559 1.50534C1.08678 1.35275 1.14612 1.19592 1.23937 1.07301C1.31143 0.97552 1.47673 0.890751 1.48097 0.763596" fill="#5A5F65"/>
<path d="M1.65885 0.068415C1.65885 0.068415 1.70124 0.068415 1.72243 0.068415L1.55289 0.0896072C1.59527 0.0811302 1.63342 0.064176 1.67581 0.0514605C1.76058 0.0217909 1.84111 0.0133136 1.93435 0.00483659C2.06999 -0.00787895 2.20562 0.00483737 2.33701 0.0387455C2.63371 0.119277 2.81596 0.348156 2.9855 0.585513C2.99822 0.602467 3.01094 0.619422 3.02365 0.636376C3.0618 0.687238 3.04908 0.670284 2.98127 0.581275C3.01094 0.606706 3.04061 0.640614 3.06604 0.670283C3.14233 0.750815 3.21863 0.839823 3.26949 0.941548C3.37121 1.13228 3.42207 1.36116 3.46022 1.57309C3.50684 1.83587 3.52804 2.09866 3.45174 2.36145C3.40088 2.52675 3.32883 2.69629 3.2271 2.8404C3.07452 3.06081 2.88802 3.25578 2.62523 3.34055C2.36244 3.42532 2.15052 3.34055 1.90045 3.29816L2.06999 3.31935C1.88349 3.29816 1.71395 3.26849 1.53593 3.21339C1.44269 3.18372 1.3452 3.17525 1.25195 3.14558C1.08241 3.09048 0.912874 3.00994 0.789957 2.87431C0.641609 2.71325 0.57379 2.51828 0.518689 2.31059C0.421203 1.94608 0.374582 1.56461 0.484784 1.19586C0.548361 0.983932 0.650086 0.7932 0.789957 0.623659C0.823865 0.581274 0.866249 0.547366 0.904396 0.509219C0.912873 0.500742 0.967973 0.454119 0.963735 0.44988C0.955257 0.441403 0.866249 0.610945 0.92135 0.492266L0.857772 0.644853L0.866247 0.619421L0.845057 0.788961V0.763531C0.870488 0.589752 0.904395 0.441403 1.03579 0.314248C1.14599 0.204047 1.32825 0.119277 1.48507 0.127754C1.6419 0.136231 1.81991 0.187093 1.93435 0.314248C2.04032 0.428688 2.14204 0.602468 2.12085 0.763531C2.1039 0.916118 2.07846 1.04327 2.00217 1.1789C1.95555 1.25944 1.88773 1.33573 1.81991 1.39931C1.81144 1.40779 1.70548 1.49679 1.70971 1.50527C1.70971 1.50527 1.81144 1.34421 1.73514 1.48408C1.71819 1.51375 1.70124 1.54766 1.68852 1.58156L1.7521 1.42898C1.72243 1.50951 1.697 1.59004 1.68428 1.67481L1.70547 1.50527C1.68852 1.62395 1.69276 1.73839 1.70971 1.85283L1.68852 1.68329C1.71395 1.84435 1.75634 2.00966 1.8072 2.16224L1.74362 2.00966L1.76481 2.05628L1.69276 1.96727C1.72243 1.99694 1.71395 1.9927 1.66309 1.95032C1.5656 1.87402 1.66309 1.94608 1.70124 1.95879L1.54865 1.89521C1.63766 1.92912 1.72667 1.94184 1.81991 1.96303C1.94283 1.9927 2.05727 2.03933 2.18019 2.05628L2.01065 2.03509C2.18019 2.05204 2.33278 2.09442 2.49808 2.12409L2.32854 2.1029C2.35397 2.1029 2.3794 2.1029 2.40483 2.1029L2.23529 2.12409C2.23529 2.12409 2.27344 2.11562 2.29463 2.10714L2.14204 2.17072C2.14204 2.17072 2.17595 2.14953 2.18866 2.14529C2.248 2.11986 2.06151 2.25973 2.12509 2.19191C2.1378 2.17496 2.15476 2.158 2.16747 2.14529C2.20986 2.10714 2.06999 2.28516 2.12509 2.20039C2.17171 2.12409 2.21834 2.05204 2.25224 1.97151L2.18866 2.12409C2.2141 2.06052 2.23529 1.9927 2.248 1.92488L2.22681 2.09442C2.23953 1.9927 2.23953 1.89521 2.22681 1.79349L2.248 1.96303C2.22257 1.79349 2.18443 1.61124 2.12085 1.45017L2.18443 1.60276C2.17171 1.57732 2.15476 1.5519 2.14204 1.52646C2.11661 1.4756 2.26072 1.66209 2.17595 1.57309C2.09542 1.49255 2.03184 1.41202 1.96402 1.32301C1.92588 1.27215 1.88773 1.22129 1.85382 1.17043C1.78601 1.07718 1.95555 1.27639 1.87502 1.20434C1.75634 1.09414 1.98098 1.25944 1.87926 1.20434L2.03184 1.26792C1.99793 1.2552 1.9725 1.24672 1.93859 1.24248L2.10813 1.26368C2.04879 1.25944 1.99369 1.26368 1.93859 1.26368L2.10813 1.24248C1.95555 1.27215 1.82839 1.33997 1.66309 1.32725C1.49779 1.31454 1.33673 1.26791 1.21381 1.14076C1.10361 1.03056 1.01884 0.8483 1.02731 0.691475C1.04003 0.369348 1.30705 0.0260287 1.66309 0.0556983L1.65885 0.068415Z" fill="#5A5F65"/>
<path d="M1.95992 8.60474C2.19727 8.64712 2.53635 8.65136 2.71437 8.84209C2.84153 8.98196 2.88815 9.25747 2.92206 9.43972C3.02802 9.99073 2.56179 10.4061 2.08283 10.5502C1.837 10.6223 1.70137 10.6774 1.45977 10.5545C1.24785 10.4485 1.18427 10.1221 1.18427 9.89748C1.18427 9.70251 1.13341 9.42277 1.18427 9.23627C1.22665 9.08369 1.55726 8.77852 1.71832 8.78699" fill="#5A5F65"/>
<path d="M2.12512 7.99021C2.38791 8.03683 2.62103 8.06226 2.86686 8.1767C3.18899 8.33352 3.37972 8.64717 3.46873 8.98202C3.5535 9.28719 3.59165 9.5966 3.53231 9.90601C3.47721 10.1942 3.29495 10.4782 3.08303 10.6774C2.85838 10.8893 2.59136 11.0419 2.29466 11.1394C1.99797 11.2369 1.68008 11.3005 1.3749 11.1988C0.984961 11.0716 0.722174 10.7834 0.607734 10.3934C0.531441 10.1434 0.544156 9.87634 0.527202 9.61779C0.514486 9.43978 0.518725 9.25752 0.561111 9.08374C0.607734 8.89725 0.717935 8.74466 0.84509 8.60479C1.06125 8.35896 1.38338 8.14703 1.71822 8.14279C2.05307 8.13855 2.37095 8.43949 2.354 8.77857C2.33705 9.11765 2.07426 9.41011 1.71822 9.41434C1.70975 9.41434 1.69703 9.41434 1.68855 9.41434L1.85809 9.39315C1.8369 9.39739 1.81147 9.40587 1.79028 9.41434L1.94286 9.35077C1.88352 9.3762 1.82843 9.41435 1.77333 9.45673L1.90048 9.35924C1.82419 9.41858 1.75637 9.4864 1.69703 9.55846L1.79452 9.4313C1.77332 9.46097 1.75213 9.49064 1.73518 9.52455L1.79876 9.37196C1.78604 9.40587 1.77756 9.44402 1.77333 9.48216L1.79452 9.31262C1.77756 9.44825 1.79452 9.58389 1.803 9.71952C1.81147 9.83396 1.80299 9.94416 1.81995 10.0586L1.79876 9.88906C1.81147 9.98231 1.83266 10.0713 1.86657 10.1561L1.803 10.0035C1.82419 10.0459 1.84538 10.0883 1.87505 10.1264L1.77756 9.99926C1.79875 10.0247 1.81995 10.0459 1.84114 10.0628L1.71398 9.96535C1.75213 9.99502 1.79028 10.012 1.8369 10.0332L1.68431 9.96959C1.73094 9.98655 1.77756 9.99926 1.82843 10.0077L1.65888 9.98655C1.70127 9.99078 1.74365 9.99078 1.79028 9.98655L1.62074 10.0077C1.76909 9.98654 1.91743 9.93992 2.05731 9.88058L1.90472 9.94416C2.01068 9.89753 2.11241 9.8382 2.20989 9.77038L2.08274 9.86786C2.16751 9.80005 2.2438 9.72799 2.30738 9.64322L2.20989 9.77038C2.25652 9.7068 2.29466 9.63899 2.32433 9.56693L2.26075 9.71952C2.28618 9.6517 2.30314 9.58813 2.31162 9.51607L2.29042 9.68561C2.2989 9.62203 2.29466 9.55845 2.29042 9.49488L2.31162 9.66442C2.28618 9.49488 2.25228 9.3211 2.1887 9.16427L2.25228 9.31686C2.23108 9.27024 2.20565 9.22361 2.17598 9.18123L2.27347 9.30838C2.25228 9.28295 2.22684 9.26176 2.20141 9.24057L2.32857 9.33805C2.28619 9.30838 2.2438 9.28295 2.19718 9.26176L2.34976 9.32534C2.1675 9.25328 1.97677 9.24481 1.78604 9.2109C1.63769 9.18547 1.48087 9.04559 1.40457 8.91844C1.32404 8.78281 1.29013 8.57936 1.341 8.42677C1.39186 8.27419 1.48511 8.12584 1.63345 8.04531C1.79452 7.96054 1.9471 7.95206 2.12512 7.98173V7.99021Z" fill="#5A5F65"/>
<path d="M2.07846 16.2045C2.29039 16.2426 2.48536 16.3698 2.6761 16.4588C2.77358 16.5054 2.84988 16.5139 2.86259 16.6368C2.87107 16.7131 2.79901 16.9038 2.78206 16.9844C2.7312 17.2048 2.57861 17.3998 2.45145 17.5862C2.29039 17.8236 2.12085 17.8236 1.84959 17.8236C1.62918 17.8236 1.46812 17.866 1.30282 17.7092C1.12056 17.5354 0.942544 17.3447 0.789958 17.1539C0.705187 17.048 0.64161 17.0056 0.637371 16.8742C0.633132 16.7343 0.72638 16.5605 0.802673 16.4503C0.908636 16.2977 1.20109 15.8824 1.4215 15.912" fill="#5A5F65"/>
<path d="M2.24806 15.5899C2.53628 15.6492 2.78635 15.8103 3.04914 15.929C3.4518 16.1112 3.55776 16.552 3.45603 16.9462C3.38822 17.2005 3.30345 17.4549 3.1551 17.6753C2.99404 17.9211 2.82874 18.1839 2.55747 18.3195C2.28621 18.4551 2.01918 18.4467 1.7352 18.4551C1.37069 18.4679 1.06975 18.3619 0.806962 18.1076C0.61199 17.9211 0.442451 17.7176 0.268672 17.51C0.116086 17.3277 0.0186009 17.1454 0.00164686 16.8996C-0.0110687 16.6834 0.0567471 16.48 0.149994 16.2893C0.251719 16.0773 0.41278 15.8824 0.565367 15.7086C0.773054 15.4755 1.08247 15.2423 1.41307 15.2678C1.74367 15.2932 2.0658 15.5433 2.04885 15.9036C2.03613 16.2257 1.7691 16.5648 1.41307 16.5393C1.39188 16.5393 1.37492 16.5393 1.35373 16.5393L1.52327 16.5181C1.40036 16.5478 1.67586 16.4418 1.55294 16.5054C1.47241 16.5478 1.66314 16.4079 1.60804 16.4588C1.59109 16.4758 1.57413 16.4885 1.55718 16.5054C1.52327 16.5393 1.48936 16.5732 1.45969 16.6071C1.44698 16.6199 1.38764 16.7131 1.37069 16.7131C1.37069 16.7131 1.47241 16.5817 1.42155 16.6453C1.40883 16.6622 1.39612 16.6834 1.37916 16.7004C1.36221 16.7258 1.34525 16.747 1.3283 16.7724C1.29863 16.8191 1.2732 16.8657 1.24777 16.9123C1.20962 16.9759 1.29015 16.7682 1.26472 16.8742C1.25625 16.9081 1.24777 16.9378 1.23929 16.9717L1.26048 16.8021C1.26048 16.836 1.26048 16.8657 1.26048 16.8996L1.23929 16.7301C1.25625 16.8233 1.20962 16.658 1.20114 16.6622C1.20114 16.6622 1.22658 16.7089 1.23081 16.7089C1.23505 16.7089 1.12485 16.5775 1.18843 16.6453C1.20538 16.6622 1.2181 16.6792 1.23081 16.6962C1.30711 16.7894 1.37916 16.8784 1.45969 16.9674C1.54023 17.0564 1.61652 17.1327 1.69705 17.209C1.71401 17.226 1.73944 17.2429 1.75639 17.2641C1.80725 17.3192 1.65043 17.1836 1.70553 17.2217C1.74367 17.2472 1.59109 17.1963 1.63347 17.1921C1.65043 17.1921 1.68857 17.2048 1.70129 17.2048L1.53175 17.1836C1.71401 17.2005 1.91745 17.1963 2.09547 17.1751L1.92593 17.1963C1.95136 17.1963 1.97256 17.1878 1.99799 17.1793C2.087 17.1624 1.86659 17.2514 1.92593 17.2133C1.94288 17.2005 1.95984 17.1921 1.98103 17.1836C1.87083 17.2387 1.87083 17.2684 1.93441 17.209C2.00646 17.137 1.86235 17.315 1.90474 17.2472C1.92169 17.2217 1.93865 17.1963 1.9556 17.1751C1.99375 17.12 2.03189 17.0649 2.07004 17.0056C2.10395 16.9547 2.12938 16.8996 2.15905 16.8445C2.1972 16.7767 2.11243 16.9844 2.14209 16.8784C2.15057 16.8487 2.15905 16.8191 2.16753 16.7894C2.19296 16.6919 2.2311 16.5987 2.24382 16.5012L2.22263 16.6707C2.22263 16.6707 2.22263 16.6453 2.22263 16.6326L2.24382 16.8021C2.2311 16.7343 2.24382 16.7597 2.28197 16.8784L2.46422 17.0607C2.46422 17.0607 2.4176 17.0352 2.40064 17.031C2.33707 17.0013 2.27349 16.9717 2.21415 16.942C2.18024 16.925 2.14633 16.9081 2.11243 16.8911C2.08276 16.8784 2.02765 16.8615 2.00646 16.8403C2.03189 16.8699 2.13786 16.8911 2.03189 16.853C1.98951 16.8403 1.94712 16.8275 1.90474 16.8191C1.57837 16.7513 1.35797 16.3486 1.45969 16.0349C1.5699 15.6916 1.89202 15.5178 2.24382 15.5899H2.24806Z" fill="#5A5F65"/>
</svg>
