<svg width="24" height="24" viewBox="0 0 24 24" fill="none" xmlns="http://www.w3.org/2000/svg">
<g clip-path="url(#clip0_545_2449)">
<path d="M4.94431 4.63696C7.06457 5.24275 9.16702 5.17148 11.3496 5.21602C12.294 5.23384 13.2472 5.28729 14.1915 5.34965C15.1982 5.42092 15.9109 5.17148 16.9621 5.13584C18.6815 5.08239 18.6815 2.40979 16.9621 2.46324C16.4187 2.48106 15.804 2.55233 15.3318 2.61469C15.118 2.65032 14.8953 2.69486 14.6726 2.72159C14.9042 2.69486 14.343 2.68596 14.2806 2.68596C13.3808 2.6236 12.4721 2.61469 11.5724 2.55233C10.5122 2.48106 9.44319 2.57905 8.37415 2.51669C7.42983 2.46324 6.56569 2.31179 5.657 2.05344C3.99998 1.59019 3.28729 4.1648 4.94431 4.63696Z" fill="#5A5F65"/>
<path d="M5.79956 12.9844C5.6392 12.8953 5.7372 12.8953 6.10245 12.9933C6.24499 13.02 6.38753 13.0289 6.53007 13.02C6.73497 13.0378 6.93987 13.0556 7.14477 13.0734C7.67038 13.1269 8.18709 13.1625 8.7127 13.1982C9.71938 13.2605 10.7172 13.3051 11.7238 13.314C13.755 13.3318 15.7862 13.4476 17.8263 13.4387C19.5457 13.4387 19.5457 10.7572 17.8263 10.7661C15.7951 10.775 13.7639 10.6592 11.7238 10.6414C10.7172 10.6414 9.71047 10.5879 8.7127 10.5256C8.18709 10.4899 7.66147 10.4543 7.14477 10.4008C6.71715 10.3563 6.21827 10.2583 5.79956 10.3028C5.07796 10.383 4.46326 10.8641 4.46326 11.6391C4.46326 12.2984 5.07796 13.0556 5.79956 12.9755V12.9844Z" fill="#5A5F65"/>
<path d="M17.5769 19.3274C16.5345 19.3185 15.5011 19.2115 14.4588 19.1848C13.4165 19.1581 12.2762 19.1581 11.1893 19.1581C10.1826 19.1581 9.16706 19.1314 8.16928 19.2472C7.75949 19.2917 7.38532 19.2205 6.97552 19.2026C6.56572 19.1848 6.20937 19.2472 5.81739 19.0868C5.14924 18.8107 4.34746 19.3897 4.16929 20.0222C3.95548 20.7973 4.43655 21.3853 5.1047 21.6703C5.64813 21.902 6.20937 21.8574 6.77953 21.8842C7.1626 21.902 7.69712 21.9911 8.16038 21.9554C9.17597 21.8663 9.9243 21.8485 10.9577 21.8485C12.0446 21.8485 13.1403 21.8485 14.2272 21.8663C15.3141 21.8842 16.4633 22.0089 17.5858 22.0178C19.3051 22.0356 19.3051 19.363 17.5858 19.3452L17.5769 19.3274Z" fill="#5A5F65"/>
</g>
<defs>
<clipPath id="clip0_545_2449">
<rect width="15.1269" height="20" fill="white" transform="translate(4 2)"/>
</clipPath>
</defs>
</svg>
