<!-- 
function LeftButton() {
  return (
    <svg width="40" height="45" viewBox="0 0 40 45" fill="none" xmlns="http://www.w3.org/2000/svg">
    <path d="M25.183 12.319C23.9053 12.3533 22.722 13.4765 21.7101 14.1539C21.1699 14.514 20.6211 14.8827 20.1238 15.3114C19.7036 15.6715 19.3349 16.083 18.9147 16.4431C18.0315 17.1976 17.3541 18.2779 16.4023 18.9296C15.8964 19.2725 15.4762 19.6584 14.9788 20.0013C14.7044 20.1899 14.4472 20.4043 14.2157 20.6444C14.0613 20.7987 13.8898 21.0902 13.7183 21.2017C13.1524 21.5961 12.8866 22.3249 13.2553 22.9593C13.5811 23.5252 14.4386 23.8167 15.0131 23.4223C15.5191 23.0708 15.8363 22.5478 16.3251 22.1705C16.488 22.0505 16.6938 21.9562 16.8567 21.8361C17.114 21.6561 17.3026 21.416 17.5427 21.2274C18.0144 20.8587 18.5117 20.5415 18.949 20.1128C19.3606 19.7098 19.7208 19.2382 20.1066 18.8095C20.4668 18.4151 20.9041 18.0807 21.3071 17.7206C21.7101 17.3605 22.0446 17.0261 22.4733 16.7261C22.9878 16.366 23.5109 16.0144 24.0254 15.6543C24.2655 15.4914 24.5056 15.3285 24.7542 15.1827C24.8829 15.1142 25.0029 15.0456 25.1315 14.977L25.2602 14.8998C25.4745 14.7969 25.4402 14.7883 25.1744 14.8827C26.8294 14.8398 26.8294 12.2676 25.1744 12.3105L25.183 12.319Z" fill="#5A5F65"/>
    <path d="M12.6121 22.6506C12.998 23.328 13.4525 23.971 13.9584 24.5626C14.43 25.1113 14.9616 25.5143 15.4933 25.9945C15.7934 26.2602 16.0335 26.5603 16.3679 26.7833C16.5909 26.9376 16.8395 27.0062 17.0625 27.1348C17.4226 27.3406 17.7228 27.5635 18.1086 27.7264C18.4602 27.8807 18.8118 28.0179 19.1462 28.2065C19.7207 28.5238 20.1838 29.0039 20.7583 29.3383C21.3928 29.707 22.0102 30.1271 22.6876 30.4186C22.8248 30.4786 23.0907 30.6415 22.8506 30.4529C22.9878 30.5558 23.1078 30.6758 23.245 30.7873C23.5022 30.9845 23.7681 31.1388 24.0339 31.3017C24.2826 31.4475 24.4884 31.6533 24.7799 31.799C25.0715 31.9448 25.3716 32.0305 25.6631 32.1591C26.2977 32.4421 27.0437 32.3478 27.421 31.6961C27.7383 31.1474 27.6011 30.2214 26.9579 29.9385C26.512 29.7413 26.0576 29.5698 25.6117 29.3897L26.1776 29.7241C25.9375 29.5355 25.7317 29.3212 25.4659 29.1668C25.243 29.0382 25.0114 28.9439 24.8056 28.7896C24.617 28.6438 24.4626 28.4552 24.2568 28.3351C24.0253 28.198 23.7595 28.1294 23.5194 28.0093C22.9363 27.7178 22.3361 27.3491 21.7873 26.9976C21.2813 26.6718 20.8612 26.2431 20.3295 25.9687C19.7979 25.6944 19.2234 25.54 18.7174 25.2314C18.1858 24.9056 17.7571 24.6226 17.294 24.2025C16.831 23.7824 16.3851 23.4566 15.9735 23.0021C15.519 22.5048 15.1503 21.9561 14.8159 21.3731C13.9927 19.9412 11.7718 21.2273 12.595 22.6678L12.6121 22.6506Z" fill="#5A5F65"/>
    </svg>

  )
} -->
<svg width="40" height="45" viewBox="0 0 40 45" fill="none" xmlns="http://www.w3.org/2000/svg">
<path d="M25.183 12.319C23.9053 12.3533 22.722 13.4765 21.7101 14.1539C21.1699 14.514 20.6211 14.8827 20.1238 15.3114C19.7036 15.6715 19.3349 16.083 18.9147 16.4431C18.0315 17.1976 17.3541 18.2779 16.4023 18.9296C15.8964 19.2725 15.4762 19.6584 14.9788 20.0013C14.7044 20.1899 14.4472 20.4043 14.2157 20.6444C14.0613 20.7987 13.8898 21.0902 13.7183 21.2017C13.1524 21.5961 12.8866 22.3249 13.2553 22.9593C13.5811 23.5252 14.4386 23.8167 15.0131 23.4223C15.5191 23.0708 15.8363 22.5478 16.3251 22.1705C16.488 22.0505 16.6938 21.9562 16.8567 21.8361C17.114 21.6561 17.3026 21.416 17.5427 21.2274C18.0144 20.8587 18.5117 20.5415 18.949 20.1128C19.3606 19.7098 19.7208 19.2382 20.1066 18.8095C20.4668 18.4151 20.9041 18.0807 21.3071 17.7206C21.7101 17.3605 22.0446 17.0261 22.4733 16.7261C22.9878 16.366 23.5109 16.0144 24.0254 15.6543C24.2655 15.4914 24.5056 15.3285 24.7542 15.1827C24.8829 15.1142 25.0029 15.0456 25.1315 14.977L25.2602 14.8998C25.4745 14.7969 25.4402 14.7883 25.1744 14.8827C26.8294 14.8398 26.8294 12.2676 25.1744 12.3105L25.183 12.319Z" fill="#5A5F65"/>
<path d="M12.6121 22.6506C12.998 23.328 13.4525 23.971 13.9584 24.5626C14.43 25.1113 14.9616 25.5143 15.4933 25.9945C15.7934 26.2602 16.0335 26.5603 16.3679 26.7833C16.5909 26.9376 16.8395 27.0062 17.0625 27.1348C17.4226 27.3406 17.7228 27.5635 18.1086 27.7264C18.4602 27.8807 18.8118 28.0179 19.1462 28.2065C19.7207 28.5238 20.1838 29.0039 20.7583 29.3383C21.3928 29.707 22.0102 30.1271 22.6876 30.4186C22.8248 30.4786 23.0907 30.6415 22.8506 30.4529C22.9878 30.5558 23.1078 30.6758 23.245 30.7873C23.5022 30.9845 23.7681 31.1388 24.0339 31.3017C24.2826 31.4475 24.4884 31.6533 24.7799 31.799C25.0715 31.9448 25.3716 32.0305 25.6631 32.1591C26.2977 32.4421 27.0437 32.3478 27.421 31.6961C27.7383 31.1474 27.6011 30.2214 26.9579 29.9385C26.512 29.7413 26.0576 29.5698 25.6117 29.3897L26.1776 29.7241C25.9375 29.5355 25.7317 29.3212 25.4659 29.1668C25.243 29.0382 25.0114 28.9439 24.8056 28.7896C24.617 28.6438 24.4626 28.4552 24.2568 28.3351C24.0253 28.198 23.7595 28.1294 23.5194 28.0093C22.9363 27.7178 22.3361 27.3491 21.7873 26.9976C21.2813 26.6718 20.8612 26.2431 20.3295 25.9687C19.7979 25.6944 19.2234 25.54 18.7174 25.2314C18.1858 24.9056 17.7571 24.6226 17.294 24.2025C16.831 23.7824 16.3851 23.4566 15.9735 23.0021C15.519 22.5048 15.1503 21.9561 14.8159 21.3731C13.9927 19.9412 11.7718 21.2273 12.595 22.6678L12.6121 22.6506Z" fill="#5A5F65"/>
</svg>
