<svg width="18" height="17" viewBox="0 0 18 17" fill="none" xmlns="http://www.w3.org/2000/svg">
<g clip-path="url(#clip0_1273_1765)">
<path fill-rule="evenodd" clip-rule="evenodd" d="M8.99996 1.41699C5.08794 1.41699 1.91663 4.58831 1.91663 8.50033C1.91663 12.4123 5.08794 15.5837 8.99996 15.5837C12.912 15.5837 16.0833 12.4123 16.0833 8.50033C16.0833 4.58831 12.912 1.41699 8.99996 1.41699ZM0.666626 8.50033C0.666626 3.89795 4.39759 0.166992 8.99996 0.166992C13.6023 0.166992 17.3333 3.89795 17.3333 8.50033C17.3333 13.1027 13.6023 16.8337 8.99996 16.8337C4.39759 16.8337 0.666626 13.1027 0.666626 8.50033Z" fill="#5A5F65"/>
<path fill-rule="evenodd" clip-rule="evenodd" d="M14.0942 5.23596C14.3323 5.48592 14.3226 5.88153 14.0726 6.11958L8.12265 11.7862C7.88149 12.0159 7.50259 12.0162 7.26114 11.7868L3.92781 8.62012C3.67756 8.38238 3.66741 7.98678 3.90515 7.73653C4.14289 7.48627 4.53849 7.47613 4.78875 7.71387L7.69107 10.4711L13.2106 5.21441C13.4605 4.97635 13.8561 4.986 14.0942 5.23596Z" fill="#5A5F65"/>
</g>
<defs>
<clipPath id="clip0_1273_1765">
<rect width="16.6667" height="16.6667" fill="white" transform="translate(0.666626 0.166992)"/>
</clipPath>
</defs>
</svg>
