<svg width="240" height="124" viewBox="0 0 240 124" fill="none" xmlns="http://www.w3.org/2000/svg">
<path d="M151.639 2.98125C157.168 2.98125 206.33 0.726135 210.76 3.57475C215.59 2.99088 220.878 2.36639 222.029 6.39341C225.187 17.4485 225.096 29.8438 228.413 41.1204C234.294 61.1165 238.344 85.6258 236.062 106.447C235.857 108.325 237.043 114.948 235.237 116.353C231.225 119.473 220.129 118.452 215.589 118.885C185.113 121.787 154.711 121.856 124.122 121.856C101.947 121.856 79.8114 122.847 57.6395 122.847C45.2115 122.847 32.8519 121.856 20.436 121.856C18.7402 121.856 1.37383 123.502 1.06371 120.866C0.732973 118.055 1.7843 115.103 2.05434 112.335C2.82567 104.429 5.23465 96.9876 7.00748 89.2759C9.25232 79.5108 10.036 69.3819 12.621 59.7222C14.4192 53.0026 17.5146 46.3192 17.9044 39.3042C18.2059 33.8764 18.299 28.4433 18.6749 23.0139C19.0815 17.14 18.6667 10.3102 19.9407 4.57726C20.7044 1.14061 32.5188 1.99063 35.7357 1.99063C38.8013 1.99063 41.6384 1 44.7614 1C55.3569 1 65.7647 2.84196 76.3514 2.98125C101.437 3.31132 126.551 2.98125 151.639 2.98125Z" fill="white"/>
<path d="M211.077 3.97188C210.646 0.527661 157.406 2.98125 151.639 2.98125C126.551 2.98125 101.437 3.31132 76.3514 2.98125C65.7647 2.84196 55.3569 1 44.7614 1C41.6384 1 38.8013 1.99063 35.7357 1.99063C32.5188 1.99063 20.7044 1.14061 19.9407 4.57726C18.6667 10.3102 19.0815 17.14 18.6749 23.0139C18.299 28.4433 18.2059 33.8764 17.9044 39.3042C17.5146 46.3192 14.4192 53.0026 12.621 59.7222C10.036 69.3819 9.25232 79.5108 7.00748 89.2759C5.23465 96.9876 2.82567 104.429 2.05434 112.335C1.7843 115.103 0.732973 118.055 1.06371 120.866C1.37383 123.502 18.7402 121.856 20.436 121.856C32.8519 121.856 45.2115 122.847 57.6395 122.847C79.8114 122.847 101.947 121.856 124.122 121.856C154.711 121.856 185.113 121.787 215.589 118.885C220.129 118.452 231.225 119.473 235.237 116.353C237.043 114.948 235.857 108.325 236.062 106.447C238.344 85.6258 234.294 61.1165 228.413 41.1204C225.096 29.8438 225.187 17.4485 222.029 6.39341C220.482 0.980264 211.459 3.97188 206.123 3.97188" stroke="black" stroke-width="2" stroke-linecap="round"/>
<path d="M20.3252 2.76575C20.3252 4.66798 22.6037 6.06093 23.9608 7.11945C30.1049 11.9119 36.6822 15.9918 43.126 20.3601C52.1761 26.4951 61.5776 32.326 70.2805 38.9419C74.1606 41.8914 77.6973 45.2936 81.7034 48.0756C85.8282 50.9401 90.4949 52.9102 95.0113 55.055C101.665 58.215 107.765 62.2749 113.907 66.3208C116.967 68.3361 119.679 71.2612 122.929 72.9635C124.339 73.7021 128.826 69.2967 129.886 68.565C136.22 64.1902 141.465 59.1586 147.301 54.2022C151.748 50.4254 156.739 47.3225 160.878 43.1833C164.167 39.8944 167.589 36.49 171.179 33.5334C179.349 26.8047 189.526 23.6078 198.041 17.4875C200.074 16.0264 201.83 14.3891 203.966 13.0665C205.761 11.9553 207.854 10.0345 209.756 9.27386C211.68 8.50415 213.443 7.35014 215.187 6.22178C216.701 5.2423 218.465 4.63253 219.877 3.57365" stroke="black" stroke-width="2" stroke-linecap="round"/>
<path d="M2.14746 97.2904C2.54422 97.2408 2.85951 96.8605 3.20222 96.662C6.04938 95.0137 9.01856 93.6763 11.9769 92.241C18.7076 88.9756 25.3226 85.3552 31.6359 81.3568C39.7298 76.2306 47.1572 70.0981 54.8856 64.4357C57.8031 62.2981 60.9776 60.4729 63.8174 58.2642C66.4902 56.1853 69.1416 53.7251 71.9638 51.8907C73.869 50.6523 75.323 49.5235 76.4745 47.6044" stroke="black" stroke-width="2" stroke-linecap="round"/>
<path d="M154.841 50.8359C155.453 52.8769 161.704 54.5965 163.099 55.2345C170.129 58.4494 177.018 60.9593 184.329 63.3584C195.421 66.9979 205.935 72.1041 217.004 75.8361C220.972 77.1738 225.135 77.7148 229.123 79.0228C230.387 79.4375 232.38 79.7815 233.432 80.7284C234.709 81.8778 236.281 83.1521 238.055 83.1521" stroke="black" stroke-width="2" stroke-linecap="round"/>
</svg>
