<svg width="208" height="14" viewBox="0 0 208 14" fill="none" xmlns="http://www.w3.org/2000/svg">
<path d="M1 3.78383C3.55673 4.17717 6.01884 6.67853 7.9789 8.19156C10.4758 10.1189 13.1656 10.4173 16.2724 9.83479C18.2243 9.4688 19.5749 8.58282 21.1054 7.41827C22.8158 6.11689 25.3117 6.23679 27.3304 6.21968C30.8454 6.18989 32.6719 6.72521 35.8559 8.50087C37.6274 9.48883 42.4213 13.5676 44.536 12.5606C47.6429 11.0811 49.4355 6.07642 51.6309 3.47451C54.7013 -0.164451 63.9828 2.86383 67.4252 3.86116C70.2661 4.68422 72.7419 6.35554 75.6221 6.99296C78.7865 7.69329 82.1357 8.00313 85.3655 8.23022C90.059 8.56024 93.2214 4.77785 97.6027 3.45518C103.626 1.63677 109.275 6.54495 114.789 8.5202C119.559 10.2288 123.403 5.95811 127.355 4.01581C131.876 1.79338 136.046 4.37745 140.114 6.21968C141.916 7.0356 144.609 8.03253 146.494 6.91563C147.695 6.20345 148.425 5.22627 149.819 4.75044C158.192 1.89139 165.198 7.1816 173.481 7.26361C178.082 7.30917 182.579 6.56766 187.149 6.56766C188.883 6.56766 190.616 6.56766 192.35 6.56766C194.311 6.56766 196.191 5.38254 198.13 5.02109C199.762 4.7168 204.443 5.23159 205.341 3.43585C205.635 2.84644 205.574 2.32771 205.611 1.69596C205.635 1.2871 206.13 1.35367 206.307 1" stroke="black" stroke-width="2" stroke-linecap="round"/>
</svg>
