<svg width="251" height="114" viewBox="0 0 251 114" fill="none" xmlns="http://www.w3.org/2000/svg">
<path d="M64.1177 90.5355L64.8305 90.3023L64.6971 89.8943L64.2777 89.8027L64.1177 90.5355ZM71.4648 113L70.752 113.233L72.2148 113H71.4648ZM71.4648 92.0171L71.6016 91.2797L70.7148 91.1151V92.0171H71.4648ZM249.25 48.8745C249.25 55.2005 245.919 61.3113 239.712 66.9545C233.504 72.5979 224.48 77.7145 213.266 82.0269C190.841 90.6498 159.812 95.999 125.5 95.999V97.499C159.948 97.499 191.168 92.1312 213.804 83.4269C225.119 79.0758 234.328 73.8762 240.721 68.0644C247.114 62.2523 250.75 55.7687 250.75 48.8745H249.25ZM125.5 1.75C159.812 1.75 190.841 7.09925 213.266 15.7221C224.48 20.0346 233.504 25.1512 239.712 30.7945C245.919 36.4377 249.25 42.5485 249.25 48.8745H250.75C250.75 41.9804 247.114 35.4967 240.721 29.6846C234.328 23.8728 225.119 18.6733 213.804 14.3221C191.168 5.61782 159.948 0.25 125.5 0.25V1.75ZM1.75 48.8745C1.75 42.5485 5.08118 36.4377 11.2883 30.7945C17.4957 25.1512 26.5198 20.0346 37.7344 15.7221C60.1586 7.09925 91.1882 1.75 125.5 1.75V0.25C91.0523 0.25 59.8319 5.61782 37.196 14.3221C25.8806 18.6733 16.672 23.8728 10.2793 29.6846C3.88638 35.4967 0.25 41.9804 0.25 48.8745H1.75ZM64.2777 89.8027C45.4832 85.6993 29.7981 79.7744 18.8318 72.6858C7.8401 65.5808 1.75 57.4199 1.75 48.8745H0.25C0.25 58.1869 6.87319 66.7418 18.0175 73.9456C29.1874 81.1657 45.0611 87.1425 63.9577 91.2682L64.2777 89.8027ZM72.1776 112.767L64.8305 90.3023L63.4049 90.7686L70.752 113.233L72.1776 112.767ZM70.7148 92.0171V113H72.2148V92.0171H70.7148ZM125.5 95.999C106.181 95.999 87.897 94.3031 71.6016 91.2797L71.328 92.7545C87.7196 95.7958 106.095 97.499 125.5 97.499V95.999Z" fill="black"/>
</svg>
