<svg width="66" height="104" viewBox="0 0 66 104" fill="none" xmlns="http://www.w3.org/2000/svg">
<path d="M21.3781 6.4627C21.3781 17.0482 23.267 27.4521 21.9415 38.1294C20.1489 52.5699 12.7917 60.9745 3.74164 71.3174C-3.7788 79.9122 16.7364 65.2126 18.7861 70.1905C20.4314 74.1862 19.4123 80.616 19.2933 84.7842C19.1397 90.1593 15.653 105.423 18.5608 100.899C33.5782 77.5388 42.4401 51.326 62.3983 31.3678C64.2412 29.5249 65.5347 28.6332 62.2856 29.283C56.0007 30.54 48.6579 27.3441 43.0151 24.9443C36.6397 22.2329 27.0215 18.4804 24.4208 11.4212C23.2475 8.23655 22.6852 4.72711 20.3638 2.40576" stroke="#FF00FF" stroke-width="3" stroke-linecap="round"/>
</svg>
