<svg width="59" height="64" viewBox="0 0 59 64" fill="none" xmlns="http://www.w3.org/2000/svg">
<path d="M35.8397 2C30.5333 12.6128 22.7037 20.8268 12.316 26.7807C9.91205 28.1586 7.30275 30.1382 4.68421 31.0904C4.37596 31.2025 1.48548 31.9321 2.08044 32.527C5.7116 36.1582 11.2692 35.7614 13.2138 41.5953C15.6708 48.9664 11.5977 55.0681 11.5977 62.1113C11.5977 62.2333 13.183 60.4285 13.3934 60.1809C18.3628 54.3346 25.059 49.1676 31.2607 44.7378C38.2969 39.7119 45.545 35.3952 53.4376 31.8985C54.1155 31.5982 59.0334 30.2989 56.7148 29.4294C49.2597 26.6338 42.3692 22.6441 39.476 14.9291C38.6764 12.7968 38.258 5.22931 36.6478 4.4242" stroke="#FF00FF" stroke-width="3" stroke-linecap="round"/>
</svg>
