<svg width="53" height="117" viewBox="0 0 53 117" fill="none" xmlns="http://www.w3.org/2000/svg">
<path d="M28.6622 3.17606C28.6622 12.6656 21.8354 24.4434 15.8299 30.8789C12.7816 34.1453 7.80407 36.4774 4.06686 38.7193C-0.142433 41.2444 2.8478 40.671 6.20559 41.8555C14.2042 44.677 17.8727 47.2073 17.9686 56.4909C18.1 69.2067 16.0702 81.41 14.7605 93.9942C14.0679 100.649 13.7488 107.358 12.8594 113.987C12.5701 116.144 12.6352 114.269 12.8594 113.726C15.9053 106.356 19.7019 98.81 23.4936 91.9035C29.9819 80.085 37.849 71.9579 47.3761 63.8086C47.9825 63.2899 51 63.3229 51 62.5672C51 60.4427 41.3175 50.4554 40.0687 48.7158C30.289 35.0921 25.4541 18.9992 25.4541 2" stroke="#FF00FF" stroke-width="3" stroke-linecap="round"/>
</svg>
