<svg width="350" height="202" viewBox="0 0 350 202" fill="none" xmlns="http://www.w3.org/2000/svg">
<path d="M175 1.48384L199.525 28.37L200.026 28.9193L200.697 28.5977L241.193 9.16961L245.959 39.0136L246.12 40.0199L247.123 39.8403L297.744 30.7771V52.5V53.2735L298.492 53.4679L335.247 63.0102L324.1 85.9824L323.696 86.816L324.496 87.2828L348.255 101.14L326.865 118.728L326.272 119.215L326.59 119.915L335.25 138.926L298.541 146.521L297.744 146.686V147.5V171.223L247.123 162.16L246.12 161.98L245.959 162.986L241.193 192.83L200.697 173.402L200.026 173.081L199.525 173.63L175 200.516L150.475 173.63L149.974 173.081L149.303 173.402L108.414 193.019L92.854 167.48L92.5236 166.937L91.8922 167.006L51.9101 171.341L44.4318 152.137L44.2791 151.745L43.8917 151.58L14.5478 139.086L21.9537 115.613L22.1773 114.904L21.5632 114.485L1.80919 101.023L31.5421 81.8403L32.555 81.1868L31.7258 80.312L15.2127 62.891L51.5076 53.4679L52.2563 53.2735V52.5V30.7771L102.877 39.8403L103.88 40.0199L104.041 39.0136L108.807 9.16961L149.303 28.5977L149.974 28.9193L150.475 28.37L175 1.48384Z" fill="#FFFF00" stroke="#FF0000" stroke-width="2"/>
</svg>
